<?xml version="1.0" standalone="no"?>
<!DOCTYPE svg PUBLIC "-//W3C//DTD SVG 1.1//EN" "http://www.w3.org/Graphics/SVG/1.1/DTD/svg11.dtd">
<svg xmlns="http://www.w3.org/2000/svg">
<defs >
<font id="DancingScript" horiz-adv-x="497" ><font-face
    font-family="Dancing Script Medium"
    units-per-em="1000"
    panose-1="0 0 0 0 0 0 0 0 0 0"
    ascent="920"
    descent="-280"
    alphabetic="0" />
<glyph unicode=" " horiz-adv-x="260" />
<glyph unicode="!" horiz-adv-x="272" d="M100 293Q119 340 141 397T187 511T235 615T281 691T323 720Q332 720 339 713T346 695Q346 681 331 642T290 549T234 432T169 308T106 193T51 103Q49 104 48 104T45 106Q52 145 62 180T82 245T100 293ZM21 -10Q7 -10 -3
-3T-14 19Q-14 37 6 49T46 62Q59 62 67 57T75 36Q75 20 59 5T21 -10Z" />
<glyph unicode="&quot;" horiz-adv-x="253" d="M276 576Q265 582 261 592T256 615Q256 636 265 660T288 703T317 721Q328 721 336 712T345 690Q319 663 304 634T276 576ZM158 576Q147 582 143 592T138 615Q138 636 147 660T170 703T199 721Q210 721 218 712T227
690Q201 663 186 634T158 576Z" />
<glyph unicode="#" horiz-adv-x="685" d="M106 -162Q124 -140 143 -91T181 25T218 168Q184 167 150 165T72 158L12 153Q14 181 43 196T122 219T232 228Q234 239 237 257T244 286Q214 285 182 283T109 277L49 272Q51 298 79 313T153 336T257 345Q279 450 295 534T323
673Q326 688 333 700T373 721Q370 703 360 647T335 513T303 346Q337 346 368 345T429 342Q452 448 468 533T495 673Q498 688 506 700T546 721Q542 707 536 671T520 583T499 469T474 340Q529 337 583 333T683 329Q652 303 625 298T574 293Q543 293 516 293T465 292Q462
275 458 255T451 221Q501 218 552 215T645 211Q614 184 588 179T537 174Q510 174 487 174T441 173Q420 63 399 -11T351 -124T279 -162Q298 -139 317 -90T355 27T391 170H268Q245 61 226 -13T179 -124T106 -162ZM403 224L418 291Q380 291 350 291T291 289L279 228Q311
228 342 227T403 224Z" />
<glyph unicode="$" horiz-adv-x="542" d="M140 -162Q152 -146 165 -119T191 -56Q141 -53 99 -35T31 15T5 96Q5 142 26 171T80 214T142 229Q113 198 98 163T83 94Q83 45 114 16T203 -20Q220 40 238 112T273 262Q239 282 207 303T154 356T133 432Q133 488 163 534T243
612T352 652Q354 665 358 679T374 704T407 720Q406 711 403 695T395 655Q462 655 486 626T510 550Q510 510 497 468T461 387Q441 391 432 404T422 431Q422 448 431 475T450 530T459 579Q459 602 444 614T389 627Q375 550 361 474T332 320Q367 302 400 280T454 225T476
144Q476 84 444 41T360 -26T247 -56Q228 -108 202 -135T140 -162ZM259 -19Q325 -12 363 24T402 114Q402 159 377 187T315 238Q297 142 283 76T259 -19ZM291 342Q307 422 321 495T346 622Q302 613 269 587T219 526T201 457Q201 415 227 389T291 342Z" />
<glyph unicode="%" horiz-adv-x="712" d="M81 -87Q105 -64 141 -12T220 111T308 260T393 416T466 561T517 674Q521 684 535 694T568 712T603 720Q599 705 579 663T529 563T465 438T395 306T328 186T275 97Q223 15 176 -36T81 -87ZM188 344Q143 344 123 377T102
454Q102 488 112 525T142 595T189 648T249 669Q289 669 313 641T338 564Q338 532 327 494T296 422T249 366T188 344ZM194 387Q211 387 227 405T255 451T274 511T281 571Q281 596 274 612T250 629Q228 629 212 610T185 562T168 503T162 448Q162 421 170 404T194
387ZM518 0Q473 0 453 33T432 109Q432 143 442 180T472 250T519 303T580 324Q619 324 643 296T667 219Q667 187 656 149T626 78T579 22T518 0ZM524 42Q541 42 557 60T585 106T604 166T611 226Q611 251 604 267T580 284Q558 284 542 265T515 217T498 157T492 103Q492
76 500 59T524 42Z" />
<glyph unicode="&amp;" horiz-adv-x="635" d="M205 -87Q144 -87 99 -62T29 5T4 96Q4 142 23 185T78 265T160 326T261 356Q224 388 206 429T187 511Q187 564 214 612T288 689T397 719Q453 719 482 692T511 611Q511 574 499 538T468 480T433 457Q421 457 410 467T392
492Q428 522 451 555T475 627Q475 657 459 675T408 694Q361 694 330 667T282 594T265 497Q265 473 269 446T288 392T328 342Q260 331 209 292T130 199T102 94Q102 62 114 29T155 -26T231 -48Q284 -48 333 -22T423 48T490 148T523 262Q503 261 486 259T447 254T390
243Q392 288 423 303T497 318Q528 318 555 314T607 306T656 301Q643 274 632 269T611 264Q593 264 579 264T553 263Q546 194 516 132T437 20T330 -58T205 -87Z" />
<glyph unicode="&apos;" horiz-adv-x="135" d="M158 576Q147 582 143 592T138 615Q138 636 147 660T170 703T199 721Q210 721 218 712T227 690Q201 663 185 633T158 576Z" />
<glyph unicode="(" horiz-adv-x="270" d="M154 -87Q129 -72 108 -32T76 67T64 190Q64 286 87 367T146 514T225 625T306 695T374 720Q308 672 261 608T185 470T141 319T127 168Q127 92 140 33T177 -63Q172 -73 167 -78T154 -87Z" />
<glyph unicode=")" horiz-adv-x="284" d="M-26 -87Q-34 -86 -41 -77T-52 -60Q19 -11 77 65T171 243T207 468Q207 531 193 594T130 722Q159 714 190 678T242 581T263 434Q263 344 241 265T183 122T107 10T32 -62T-26 -87Z" />
<glyph unicode="*" horiz-adv-x="399" d="M367 404Q351 422 326 458T274 532Q249 484 223 448T166 410Q182 434 193 454T213 495T235 540Q192 540 159 546T120 578Q144 579 172 580T236 583Q215 616 202 645T189 693Q189 705 196 711T205 723Q226 683 240 654T274
596Q294 643 315 678T373 722Q362 693 343 657T307 583Q329 584 354 584T404 577T447 552L315 541Q328 523 339 506T358 464T367 404Z" />
<glyph unicode="+" horiz-adv-x="419" d="M158 -10Q162 21 164 46T167 96T168 153Q137 153 113 152T64 149T6 141Q17 171 61 182T167 195V242Q167 264 173 292T199 349Q202 328 205 286T210 195Q261 194 307 191T376 186Q347 165 317 159T265 153H210Q210 110
205 76T190 19T158 -10Z" />
<glyph unicode="," horiz-adv-x="203" d="M15 -88Q5 -82 0 -72T-5 -49Q-5 -29 4 -4T27 39T57 57Q68 57 76 48T84 27Q57 -1 44 -28T15 -88Z" />
<glyph unicode="-" horiz-adv-x="492" d="M42 143Q49 161 67 171T110 187T164 195T221 197Q244 197 270 196T323 194T372 191T405 189Q376 164 341 158T269 151Q244 151 216 152T160 153Q141 153 120 152T80 148T42 143Z" />
<glyph unicode="." horiz-adv-x="223" d="M51 -10Q34 -10 25 -2T15 21Q15 32 24 42T47 59T74 66Q86 66 94 61T103 39Q103 30 96 19T77 -1T51 -10Z" />
<glyph unicode="/" horiz-adv-x="338" d="M-66 -162Q-45 -141 -18 -95T40 14T103 150T167 298T227 445T279 576T318 674Q322 684 336 694T370 712T409 720Q404 708 389 671T352 581T304 465T250 337T197 211T151 101T118 23Q81 -66 31 -114T-66 -162Z" />
<glyph unicode="0" horiz-adv-x="640" d="M254 -87Q186 -87 143 -51T78 46T56 178Q56 245 73 319T122 465T198 593T299 685T422 720Q484 720 530 689T601 601T626 463Q626 385 608 306T557 157T477 31T375 -55T254 -87ZM268 -48Q313 -48 354 -14T430 78T491 207T531
351T545 490Q545 547 533 591T494 662T423 688Q378 688 340 662T271 592T217 492T178 376T154 260T146 158Q146 65 178 9T268 -48Z" />
<glyph unicode="1" horiz-adv-x="374" d="M44 -87Q20 -87 -3 -75T-42 -41Q-31 -42 -22 -42T-3 -43Q21 -43 49 -40T103 -33Q121 9 137 69T168 200T196 340T221 472T243 577Q188 539 164 527T129 514Q117 514 110 520T103 547Q122 557 158 583T238 645T318 720Q324
715 326 705T329 686Q329 662 320 635T306 575Q296 507 282 428T250 268T208 111T157 -25Q167 -23 176 -23T195 -22Q233 -22 260 -33T296 -83Q274 -81 253 -80T212 -78Q182 -78 152 -80T95 -84T44 -87Z" />
<glyph unicode="2" horiz-adv-x="572" d="M411 -87Q381 -87 342 -76T260 -47T173 -12Q141 -31 112 -42T57 -54Q26 -54 6 -39T-15 2Q-15 26 3 39T63 52Q86 52 112 48T170 38Q216 79 262 138T348 268T412 410T437 548Q437 621 407 654T330 688Q286 688 256 662T210
591T194 494Q194 473 197 457T208 420Q206 420 204 420T199 421Q166 428 146 448T126 512Q126 566 154 613T231 690T344 720Q398 720 435 695T492 628T512 533Q512 486 500 439T467 345Q441 286 403 228T318 118T224 26Q295 11 348 1T436 -9Q457 -9 474 -3T517
18Q504 -37 479 -62T411 -87ZM56 -22Q71 -22 88 -15T126 5Q104 13 86 17T54 21Q35 21 28 14T21 0Q21 -10 32 -16T56 -22Z" />
<glyph unicode="3" horiz-adv-x="521" d="M180 -87Q118 -87 81 -64T27 -8T10 57Q10 83 19 108T47 149T94 166Q99 166 104 166T118 164Q102 151 92 124T82 70Q82 40 95 13T133 -32T189 -50Q229 -50 265 -23T326 53T350 167Q350 205 339 243T302 310T231 350Q282
373 319 414T378 504T399 594Q399 646 371 667T309 688Q281 688 255 676T213 641T196 585Q196 569 200 552T213 517Q208 506 195 497T170 487Q157 487 148 499T135 531T130 569Q130 617 158 651T230 702T321 720Q362 720 398 706T457 662T480 587Q480 555 467 520T431
453T377 397T310 361Q366 346 398 313T443 242T457 168Q457 122 437 77T379 -6T291 -65T180 -87Z" />
<glyph unicode="4" horiz-adv-x="488" d="M312 -87Q274 -84 252 -72T229 -38Q229 -36 231 -21T238 30T256 128Q258 139 263 168T277 234Q256 235 234 235T198 236Q178 236 155 236T109 234T64 230T25 225T-4 219Q-4 237 4 250T24 274Q63 317 118 369T234 480T349
600T439 720Q444 718 449 711T455 691Q455 668 435 636Q430 613 419 563T395 443T365 291Q373 291 381 291T398 291Q424 291 440 292T472 298Q451 270 423 252T372 233Q368 233 364 233T355 233Q352 222 350 208T345 177Q341 153 335 116T324 40T315 -34T312 -87ZM93
291Q114 294 138 295T190 296Q218 296 243 296T290 294Q304 357 319 421T350 536Q315 502 275 466T197 394T126 326Q117 316 109 308T93 291Z" />
<glyph unicode="5" horiz-adv-x="493" d="M176 -87Q109 -87 71 -64T17 -8T1 56Q1 82 10 107T38 149T84 166Q89 166 94 166T108 164Q93 151 83 124T73 66Q73 37 83 11T116 -33T175 -50Q215 -50 246 -30T298 22T331 94T342 173Q342 214 329 249T286 306T208 328Q190
328 165 325T111 316Q116 346 126 388T149 478T175 572T199 655T216 714Q247 706 274 703T325 700Q366 700 404 706T483 720Q486 711 487 704T488 690Q488 661 469 644T420 621T362 614Q325 614 298 620T251 627Q244 627 240 624T231 610Q223 593 213 564T194 501T177
435T163 381T155 351Q176 356 197 358T241 360Q310 360 355 336T422 268T445 169Q445 98 411 40T316 -53T176 -87Z" />
<glyph unicode="6" horiz-adv-x="571" d="M263 -87Q187 -87 141 -54T73 36T52 163Q52 230 69 306T120 455T201 589T309 684T441 720Q483 720 511 706T539 660Q539 645 529 632T488 609Q489 617 489 623T490 639Q490 661 480 676T436 692Q389 692 347 659T271 571T211
449T169 315Q203 344 247 360T337 376Q388 376 431 356T500 292T526 180Q526 105 493 45T400 -51T263 -87ZM268 -50Q306 -50 336 -30T388 25T421 101T433 186Q433 239 416 272T370 322T305 338Q247 338 212 310T162 238T147 142Q147 114 152 81T169 18T206 -31T268
-50Z" />
<glyph unicode="7" horiz-adv-x="415" d="M105 -87Q91 -87 80 -75T68 -40Q68 -11 85 39T133 156T200 297Q182 297 157 296T106 292T62 287Q63 317 84 331T138 351T207 356Q213 356 219 356T232 356Q267 420 310 491T394 631Q374 631 346 630T289 627T237 625Q175
625 152 639T129 674Q129 693 143 718Q172 714 199 709T257 701T330 698Q378 698 425 703T507 720Q497 705 481 683T450 643Q410 585 370 513T289 353Q314 352 336 350T381 348Q396 348 405 349T424 353Q405 326 385 311T339 296Q324 296 305 296T263 297Q246 256
225 206T190 106T175 15Q175 2 177 -8T188 -24Q171 -60 145 -73T105 -87Z" />
<glyph unicode="8" horiz-adv-x="538" d="M215 -87Q162 -87 128 -72T73 -30T43 25T34 79Q34 123 53 157T104 222T174 280T250 336Q221 367 195 400T153 470T136 553Q136 613 164 649T236 702T325 719Q394 719 437 682T481 573Q481 525 462 486T410 413T339 349Q371
315 400 281T448 208T467 123Q467 59 431 12T336 -61T215 -87ZM224 -43Q261 -43 296 -23T355 33T379 119Q379 174 349 218T280 304Q234 272 193 239T126 167T100 82Q100 43 118 15T164 -28T224 -43ZM309 382Q356 421 387 467T418 573Q418 631 391 659T326 687Q304
687 279 676T237 638T219 566Q219 511 245 467T309 382Z" />
<glyph unicode="9" horiz-adv-x="577" d="M194 -87Q151 -87 122 -72T93 -25Q93 -10 103 3T142 25Q142 18 142 12T142 -3Q143 -24 154 -41T197 -59Q245 -59 285 -26T357 62T413 184T450 318Q418 289 374 273T284 257Q231 257 187 279T116 346T89 461Q89 535 121
593T210 686T343 720Q424 720 472 684T541 586T563 452Q563 385 547 311T499 166T423 38T321 -53T194 -87ZM316 296Q394 296 430 344T466 470Q466 504 460 541T441 611T402 663T339 683Q302 683 273 664T224 611T193 538T182 456Q182 401 200 366T249 313T316 296Z"
/>
<glyph unicode=":" horiz-adv-x="228" d="M111 236Q97 236 87 243T76 265Q76 283 96 295T136 308Q149 308 157 303T165 282Q165 266 148 251T111 236ZM52 -10Q39 -10 28 -3T17 19Q17 37 37 49T78 62Q91 62 98 57T106 36Q106 20 90 5T52 -10Z" />
<glyph unicode=";" horiz-adv-x="225" d="M29 -88Q18 -82 13 -72T8 -48Q8 -28 17 -3T41 41T71 60Q82 60 90 51T100 30Q73 1 59 -27T29 -88ZM111 236Q97 236 87 243T76 266Q76 283 96 296T136 309Q149 309 157 303T165 282Q165 267 149 252T111 236Z" />
<glyph unicode="&lt;" horiz-adv-x="316" d="M187 44Q169 44 143 56T92 86T47 125T24 160Q58 175 94 200T162 257T216 318Q219 316 221 308T224 292Q224 272 208 252T167 212T112 177T58 147Q80 132 99 120T147 94T221 63Q215 57 207 51T187 44Z" />
<glyph unicode="=" horiz-adv-x="508" d="M55 202Q62 224 88 235T155 251T244 255Q279 255 313 254T374 250T417 245Q388 225 359 219T308 213H208Q179 213 156 213T109 210T55 202ZM56 106Q62 128 88 139T156 155T244 159Q280 159 313 158T375 154T418 149Q389
129 360 123T309 117H209Q180 117 157 117T110 114T56 106Z" />
<glyph unicode="&gt;" horiz-adv-x="328" d="M103 44Q92 44 84 50T69 63Q116 81 143 94T190 119T231 147Q205 160 176 176T121 212T79 251T63 292Q63 298 65 305T70 317Q91 289 123 258T193 201T265 161Q261 145 243 125T199 87T148 56T103 44Z" />
<glyph unicode="?" horiz-adv-x="445" d="M244 122Q223 133 216 142T209 172Q209 220 228 259T276 333T333 404T380 482T400 576Q400 631 378 659T321 688Q287 688 252 660T195 585T172 480Q172 463 174 450T180 420Q138 426 125 447T111 499Q111 556 138 606T213
688T325 720Q389 720 427 686T465 585Q465 541 450 507T410 444T358 384T307 319T269 237Q259 203 257 177T244 122ZM202 -10Q188 -10 178 -3T167 18Q167 37 187 49T228 62Q241 62 249 56T257 38Q257 20 240 5T202 -10Z" />
<glyph unicode="@" horiz-adv-x="593" d="M225 -121Q148 -121 100 -91T29 -13T6 89Q6 146 29 200T95 299T197 369T329 395Q404 395 451 369T522 300T546 213Q546 176 533 140T495 74T438 26T370 8Q337 8 322 22T303 61Q303 68 303 73T303 85Q270 41 237 18T173
-6Q148 -6 130 11T112 62Q112 98 131 140T184 221T256 283T336 308Q369 308 390 292T412 249Q412 234 406 226T389 216T369 213Q370 219 371 225T372 238Q372 256 365 269T336 283Q308 283 279 259T225 200T185 126T170 60Q170 44 175 37T190 30Q207 30 230 48T278
95T324 152T360 204Q370 202 382 196T395 181Q395 171 384 153T361 112T349 70Q349 61 355 50T382 39Q414 39 443 64T490 127T509 206Q509 243 491 278T433 337T329 361Q265 361 213 337T124 273T67 185T47 86Q47 42 65 1T124 -66T232 -92Q284 -92 340 -72T447
-6L456 -18Q417 -61 359 -91T225 -121Z" />
<glyph unicode="A" horiz-adv-x="605" d="M27 -87Q2 -73 -4 -58T-11 -32Q-11 -4 9 43T63 151T139 277Q104 280 78 281T23 282H-5Q7 313 35 325T103 338Q120 338 138 336T175 331Q226 407 278 476T375 601T453 686Q488 721 508 721Q520 721 535 712T566 686Q556
678 541 644T508 559T473 446T442 321T419 200T410 99Q410 60 418 40T446 19Q471 19 504 54T578 167L590 154Q560 74 513 22T413 -30Q370 -30 351 8T332 111Q332 140 336 175T348 252Q304 259 268 263T201 272Q154 185 110 94T27 -87ZM356 292Q370 355 389 420T429
545T471 649Q440 629 401 582T319 468T229 321Q262 315 294 307T356 292Z" />
<glyph unicode="B" horiz-adv-x="622" d="M142 -87Q85 -87 56 -68T26 -5Q26 0 33 0Q41 0 59 -4T129 -9Q215 -9 288 10T416 62T499 136T529 223Q529 263 506 287T445 325T363 342T275 346Q256 346 237 346T200 345Q177 266 156 185T111 25Q84 25 66 40T47 76Q47
87 51 102T61 133Q67 153 82 199T118 307T164 437T217 570T270 687Q229 679 201 667T158 644T135 634Q129 634 121 639T107 651T100 665Q151 686 207 703T342 720Q376 720 417 715T495 693T556 644T580 560Q580 513 560 480T506 424T434 388T357 367Q427 361 471
344T539 304T572 255T581 206Q581 147 551 100T471 18T363 -40T246 -75T142 -87ZM207 373Q263 375 317 386T415 419T487 478T514 568Q514 618 489 645T425 683T340 694Q337 694 334 694T326 694Q291 625 262 543T207 373Z" />
<glyph unicode="C" horiz-adv-x="546" d="M229 -87Q157 -87 112 -52T46 40T25 158Q25 237 49 317T115 469T210 597T323 686T441 719Q483 719 510 699T537 631Q537 602 527 566T500 495T461 439T419 417Q410 417 401 422T384 443Q399 460 417 485T453 538T481 593T492
641Q492 661 481 672T444 684Q401 684 355 650T265 559T187 430T132 285T111 144Q111 95 125 51T171 -20T253 -48Q306 -48 359 -18T456 61T527 166L545 154Q511 88 464 34T357 -54T229 -87Z" />
<glyph unicode="D" horiz-adv-x="664" d="M172 -87Q140 -87 111 -78T61 -40Q68 0 81 52T112 162T147 279T182 389T212 480T233 538Q236 546 243 561T260 593T284 621T313 633Q328 633 345 621Q314 550 283 464T222 285T169 106T130 -53Q142 -55 153 -56T175 -57Q239
-57 298 -27T409 55T498 173T557 311T578 455Q578 536 552 587T479 663T371 688Q306 688 254 663T172 595T142 498Q142 487 143 477T148 458Q112 458 97 475T82 516Q82 551 106 587T175 653T278 701T402 720Q494 720 550 683T631 584T657 444Q657 357 630 278T555
133T446 17T314 -59T172 -87Z" />
<glyph unicode="E" horiz-adv-x="510" d="M190 -87Q128 -87 83 -62T14 5T-11 97Q-11 142 8 186T63 266T145 326T246 356Q208 388 190 429T172 511Q172 564 198 612T272 689T381 719Q439 719 469 691T500 609Q500 571 487 536T454 479T418 457Q406 457 395 467T377
492Q413 522 437 556T462 629Q462 660 444 676T391 693Q345 693 314 666T266 594T250 497Q250 459 262 417T313 342Q245 331 194 292T115 199T87 94Q87 62 99 29T140 -26T216 -49Q270 -49 322 -19T419 60T490 166L508 154Q472 86 424 32T317 -55T190 -87Z" />
<glyph unicode="F" horiz-adv-x="495" d="M164 -87Q116 -83 103 -62T90 -7Q90 29 104 81T141 195T186 316Q175 315 158 314T120 310T72 303Q74 330 92 345T141 368T208 377Q235 452 264 524T322 656Q313 657 304 657T284 658Q221 658 187 645T139 606T126 540Q126
517 129 498T141 457Q103 464 86 485T68 538Q68 590 105 630T206 692T348 715Q401 715 452 708T549 700Q572 700 591 703T632 712Q592 666 565 651T511 636Q488 636 451 642T368 652Q355 620 340 575T308 479T274 376Q325 373 368 367T453 360Q444 347 433 340T403
329T349 324T258 321Q251 297 242 267T227 213T216 178Q192 95 179 30T164 -87Z" />
<glyph unicode="G" horiz-adv-x="564" d="M219 -87Q165 -87 121 -58T51 28T25 162Q25 239 49 318T115 469T210 597T322 686T440 719Q480 719 504 703T538 661T549 604Q549 569 537 535T505 479T459 457Q450 457 441 462T424 483Q439 493 457 518T489 575T503 633Q503
655 490 669T445 684Q401 684 355 650T265 558T186 430T131 285T111 145Q111 54 149 3T245 -48Q284 -48 319 -21T381 51T424 148T444 249Q411 256 387 258T340 261Q326 261 311 261T277 259Q285 290 303 303T349 317Q378 317 408 308T469 287T523 269L515 238Q497
186 485 149T467 85T458 36T456 -6Q456 -26 457 -45T459 -89Q439 -83 426 -72T407 -46T401 -13Q401 -4 402 5T406 24Q370 -23 324 -55T219 -87Z" />
<glyph unicode="H" horiz-adv-x="632" d="M61 -87Q67 -52 74 -15T94 67T124 171T169 311Q153 310 136 308T103 305Q104 332 127 347T187 370Q193 389 199 406T212 444T227 489T247 545T272 618Q275 627 280 643T285 673Q285 681 283 684T271 687Q249 687 227 668T188
620T160 560T150 504Q150 496 152 487T157 467Q121 467 106 484T91 527Q91 561 111 595T163 657T230 703T294 720Q323 720 333 705T343 670Q343 659 341 648T335 627L259 377Q272 378 286 378T314 379Q362 379 404 377T486 370Q508 441 526 500T560 602T586 667Q590
675 597 687T616 710T647 720Q633 684 615 627T578 501T542 366Q560 365 580 364T620 362Q596 337 574 332T532 326Q522 286 514 249T499 179Q483 101 477 45T470 -45Q470 -59 470 -68T473 -87Q430 -83 414 -65T397 -4Q397 21 402 56T419 136Q427 168 441 217T473
325Q412 325 371 324T300 322T240 318Q228 278 215 236T188 150T161 64T135 -22Q124 -57 101 -72T61 -87Z" />
<glyph unicode="I" horiz-adv-x="474" d="M-31 -88Q-27 -49 -4 -32T55 -9T135 -3Q153 35 170 90T204 210T235 340T264 467T290 577T313 657Q262 656 225 654T154 647T84 636Q93 678 142 698T294 718Q345 718 398 714T496 706T565 697Q538 670 511 664T462 658Q431
658 404 658T354 657Q349 632 341 586T322 483T300 366T277 253T257 163Q242 103 223 59T176 -5Q229 -8 286 -15T396 -23Q364 -55 331 -63T276 -71Q227 -71 187 -71T110 -73T40 -77T-31 -88Z" />
<glyph unicode="J" horiz-adv-x="421" d="M86 -86Q62 -86 36 -77T-9 -40T-27 46Q-27 85 -18 124T9 189T51 215Q64 215 83 206Q65 160 56 120T46 46Q46 2 62 -22T109 -46Q134 -46 154 -25T197 56Q212 100 229 162T264 294T297 434T325 563T345 663Q297 662 263
660T200 654T139 642Q145 680 185 699T308 718Q349 718 391 714T469 706T524 697Q511 675 485 670T442 664Q424 664 407 664T376 663Q385 654 389 642T394 618Q394 605 387 561T367 454T337 321T298 183T253 62Q227 2 200 -29T145 -73T86 -86Z" />
<glyph unicode="K" horiz-adv-x="606" d="M511 -87Q488 -87 459 -62T396 6T331 97T272 196T225 286L130 -22Q123 -45 107 -55T71 -67T34 -69Q48 -40 61 -4T93 82T136 205T195 379T278 618Q281 626 286 639T291 665Q291 675 286 681T268 687Q244 687 222 668T183
620T156 560T146 505Q146 484 152 467Q116 467 101 484T86 526Q86 560 106 594T158 657T225 703T289 720Q319 720 328 704T338 669Q338 658 336 647T331 627L250 365Q263 381 283 396T330 433Q379 472 430 520T528 620T606 721Q613 713 615 698T618 674Q618 643
593 606T526 530T436 452T339 380T253 321Q283 271 312 226T375 137T456 48T567 -51Q559 -65 544 -76T511 -87Z" />
<glyph unicode="L" horiz-adv-x="583" d="M410 -87Q374 -87 330 -72T239 -36T146 5Q121 -22 94 -37T34 -53Q1 -53 -22 -38T-58 -2T-71 36Q-71 55 -54 68T5 82Q32 82 63 76T129 61Q153 103 173 158T213 275T252 398Q205 414 179 443T152 506Q152 524 160 542T184
574T221 587Q212 575 209 556T206 523Q206 487 221 462T261 424Q281 483 302 536T350 630T407 696T478 720Q499 720 522 711T563 680T580 616Q580 582 566 543T522 468T446 410T336 385Q335 385 332 385T320 385Q301 325 279 264T232 147T179 47Q222 34 269 20T362
-3T444 -13Q466 -13 484 -9T520 5Q503 -45 476 -66T410 -87ZM28 -21Q51 -21 69 -10T104 23Q73 35 44 43T-7 51Q-26 51 -33 46T-41 31Q-41 14 -22 -3T28 -21ZM328 409Q373 410 408 435T469 498T507 574T520 642Q520 670 510 680T485 690Q455 690 429 651T378 549T328
409Z" />
<glyph unicode="M" horiz-adv-x="777" d="M-13 -87Q-7 -73 19 -16T88 135T186 351T305 615Q309 623 312 633T315 654Q315 664 309 671T283 678Q241 678 214 651T173 583T160 503Q160 494 160 485T163 467Q142 467 129 480T110 514T104 552Q104 584 122 614T169
668T233 706T302 720Q337 720 360 701T396 632T409 488Q409 425 405 356T395 223T388 107Q406 167 435 235T500 371T569 498T630 601T672 665Q686 686 696 696T723 707Q737 707 759 699Q752 681 740 644T714 553Q698 493 683 418T654 264T633 118T625 0Q625 -23
627 -36T633 -59T641 -87Q605 -87 586 -76T560 -38T553 31Q553 147 581 279T648 552Q619 514 588 458T527 338T468 211T419 93T386 3Q379 1 377 0T369 -1Q339 -1 331 34T322 133Q322 173 324 225T328 333T333 441T335 535Q335 553 335 566T333 592Q255 409 202
280T111 69T45 -49T-13 -87Z" />
<glyph unicode="N" horiz-adv-x="651" d="M49 -87Q62 -38 80 21T124 161T183 354T261 618Q263 622 265 634T268 658Q268 668 265 673T254 678Q231 678 210 660T174 615T150 559T141 506Q141 484 147 467Q111 467 96 484T81 526Q81 560 101 594T152 657T219 703T283
720Q315 720 335 695T368 625T390 524T406 408Q414 348 420 299T432 211T442 141T451 86Q460 133 473 190T501 309T533 429T563 537T590 622T609 670Q615 684 633 702T678 720Q661 675 640 609T596 465T553 307T516 151T490 14T480 -87Q447 -87 426 -69T396 -4Q391
19 384 62T367 161T348 277T329 395T313 500T301 578Q254 408 221 291T164 99T122 -16T86 -71T49 -87Z" />
<glyph unicode="O" horiz-adv-x="634" d="M223 -87Q165 -87 121 -57T51 30T25 162Q25 239 49 318T115 468T211 596T325 686T447 719Q463 719 479 716T509 702Q502 702 499 702T492 702Q440 702 387 669T286 578T200 449T140 300T118 151Q118 98 131 53T175 -20T254
-48Q310 -48 358 -14T446 77T514 206T558 353T573 499Q573 527 569 559T556 615T528 639Q511 639 490 617T450 561T416 491T395 426Q367 432 355 446T342 478Q342 505 360 537T408 600T469 650T528 670Q555 670 572 651T599 600T612 534T616 468Q616 361 592 274T525
119T432 6T326 -63T223 -87Z" />
<glyph unicode="P" horiz-adv-x="538" d="M97 -87Q70 -87 47 -73T23 -35Q23 -23 28 -8T37 21Q69 118 96 202T152 365T211 523T281 688Q243 680 214 667T168 644T143 634Q139 634 131 639T117 651T110 665Q137 676 173 689T251 711T336 720Q381 720 427 708T513
672T576 611T600 526Q600 474 577 436T515 373T432 332T343 308T264 297T213 294H204Q175 192 148 93T97 -87ZM210 315Q265 318 321 333T424 376T499 445T528 543Q528 595 502 628T435 677T346 694Q310 622 276 523T210 315Z" />
<glyph unicode="Q" horiz-adv-x="705" d="M530 -119Q484 -119 444 -94T367 -38Q343 -50 318 -56T265 -63Q229 -63 207 -53T173 -27T157 2T152 25Q152 43 169 62T228 81Q269 81 308 62T389 17Q433 57 467 118T525 248T560 385T573 505Q573 586 542 637T439 688Q381
688 331 655T241 564T172 437T128 292T113 148Q113 128 115 106T122 59Q89 59 71 79T45 131T38 200Q38 274 58 348T114 490T201 608T311 690T439 720Q537 720 592 655T648 475Q648 413 632 346T585 213T513 92T424 -2Q457 -20 493 -33T570 -46Q593 -46 604 -42T632
-33Q621 -70 603 -88T566 -113T530 -119ZM259 -37Q282 -37 302 -31T341 -15Q310 11 280 31T218 51Q196 51 188 42T179 22Q179 13 186 -1T210 -26T259 -37Z" />
<glyph unicode="R" horiz-adv-x="590" d="M478 -121Q455 -121 425 -94T363 -24T298 72T239 177T193 271Q165 175 140 82T92 -87Q65 -87 43 -73T21 -35Q21 -24 26 -9T35 20Q61 102 85 171T131 303T176 427T226 553T285 690Q244 682 214 669T165 645T139 634Q134
634 126 639T112 651T105 665Q131 676 167 689T246 711T335 720Q379 720 424 710T508 677T571 618T595 531Q595 483 573 448T515 388T436 350T351 327T274 317T220 314Q251 261 280 212T343 114T422 16T532 -84Q526 -100 509 -110T478 -121ZM211 334Q266 338 321
352T421 392T494 457T522 552Q522 606 496 636T429 680T343 694Q309 626 276 532T211 334Z" />
<glyph unicode="S" horiz-adv-x="546" d="M213 -87Q158 -87 109 -68T28 -8T-3 93Q-3 146 19 175T73 217T134 229Q105 198 91 163T76 93Q76 57 92 26T143 -24T230 -43Q275 -43 318 -27T388 20T416 99Q416 141 394 171T336 226T261 272T186 318T128 375T105 453Q105
495 125 541T183 628T274 694T392 720Q454 720 479 692T504 618Q504 582 491 541T460 461T426 397Q406 401 398 413T389 443Q389 464 398 490T418 545T438 601T447 650Q447 669 436 680T392 691Q345 691 305 670T235 615T189 544T173 476Q173 439 195 413T251 366T325
323T399 276T456 214T478 127Q478 75 455 36T393 -31T307 -73T213 -87Z" />
<glyph unicode="T" horiz-adv-x="507" d="M202 -87Q154 -87 136 -67T117 -14Q117 15 129 55T153 132Q173 189 197 256T249 392T303 527T356 648Q287 647 240 645T154 638T71 626Q75 663 108 683T196 711T322 720Q381 720 429 716T519 708T604 701Q602 679 585
673T541 667Q523 657 500 654T453 649T405 648Q368 555 327 432T247 164Q233 113 223 74T207 3T201 -63Q201 -68 201 -74T202 -87Z" />
<glyph unicode="U" horiz-adv-x="721" d="M557 -99Q520 -99 497 -67T473 9Q473 21 474 41T479 87Q443 10 390 -38T264 -87Q199 -87 165 -48T130 54Q130 95 142 147T173 259T210 379T241 496T254 599Q254 687 198 687Q171 687 152 670T119 627T100 571T94 520Q94
506 96 492T103 466Q62 466 45 487T28 538Q28 569 43 601T84 660T146 703T222 720Q279 720 304 686T330 596Q330 559 321 515T298 422T268 325Q245 250 227 185T209 68Q209 22 228 -10T292 -43Q333 -43 367 -17T427 51T471 139T499 225Q513 285 530 352T565 484T602
603T639 688T674 720Q683 720 698 711T728 685Q720 679 703 643T665 551T623 427T584 289T555 155T544 43Q544 -24 563 -46T629 -69Q612 -84 593 -91T557 -99Z" />
<glyph unicode="V" horiz-adv-x="644" d="M222 -87Q207 -87 186 -81T149 -56T132 -4Q132 26 144 72T175 175T213 295T244 425T256 554Q256 591 253 621T237 669T196 687Q169 687 150 671T119 630T101 577T95 524Q95 508 98 494T106 467Q64 467 46 489T28 541Q28
572 42 603T83 661T143 704T215 720Q279 720 311 671T343 540Q343 483 330 421T299 296T261 176T229 70T216 -14Q216 -31 221 -41T242 -51Q271 -51 307 -23T383 53T460 163T528 290T575 420T593 539Q593 590 577 615T534 648Q548 674 565 686T597 698Q620 698 641
669T662 581Q662 526 642 456T586 311T506 165T411 38T313 -53T222 -87Z" />
<glyph unicode="W" horiz-adv-x="922" d="M222 -87Q211 -87 196 -84T167 -72T142 -47T132 -4Q132 28 147 79T184 204Q202 260 218 317T245 434T256 553Q256 591 253 621T237 670T196 688Q169 688 150 673T119 633T101 580T95 527Q95 490 106 467Q64 467 46 489T28
541Q28 572 42 603T83 661T142 704T214 720Q278 720 310 671T343 537Q343 466 323 387T277 227Q263 183 249 140T226 58T216 -14Q216 -33 221 -42T243 -51Q269 -51 299 -28T361 35T421 123T475 222T515 319T536 398Q571 398 587 380T603 345Q603 331 592 301T561
228Q546 191 530 150T503 67T492 -11Q492 -30 497 -40T520 -51Q548 -51 584 -23T660 54T737 164T805 291T852 422T870 539Q870 591 854 614T811 646Q826 671 843 683T875 695Q896 695 917 667T939 580Q939 526 919 457T863 312T783 166T688 38T589 -53T496 -87Q475
-87 455 -78T422 -52T409 -8Q409 6 413 26T426 69Q375 0 323 -43T222 -87Z" />
<glyph unicode="X" horiz-adv-x="677" d="M32 -112Q35 -87 40 -72T56 -44T82 -15Q114 20 142 52T198 115T253 180T310 250Q307 283 305 309T302 359T299 411T297 473Q296 548 293 595T278 666T238 689Q213 689 194 673T163 632T144 578T137 523Q137 492 146 469Q105
469 88 490T71 541Q71 572 86 604T128 662T189 704T261 721Q303 721 328 700T365 642T382 558T386 458T388 353Q467 461 522 555T610 724Q618 719 626 704T635 674Q635 654 616 616T562 525T484 413T390 291Q392 227 398 168T415 61T443 -15T484 -43Q515 -43 558
14T656 169L671 156Q632 78 599 24T533 -57T458 -85Q416 -85 389 -59T347 10T325 101T314 196Q255 124 199 61T99 -47T32 -112Z" />
<glyph unicode="Y" horiz-adv-x="679" d="M265 -187Q207 -187 166 -163T125 -91Q125 -64 141 -43T191 -12Q186 -31 184 -45T182 -70Q182 -111 204 -135T270 -159Q308 -159 338 -142T390 -96T428 -33T455 37T473 102Q483 145 493 202T516 313Q476 241 424 195T302
149Q240 149 214 183T188 271Q188 309 198 354T221 446T244 535T255 611Q255 643 243 665T199 687Q171 687 151 671T118 628T99 572T92 518Q92 503 94 491T102 466Q60 466 43 487T26 538Q26 569 41 601T83 660T145 703T221 720Q259 720 283 705T318 666T329 616Q329
590 320 552T297 466Q284 419 274 374T263 289Q263 246 279 220T333 194Q368 194 399 215T457 272T506 351T544 440Q557 488 571 537T601 628T632 695T666 720Q677 720 694 711T726 686Q705 653 690 624T662 559T634 477T603 361T561 194Q548 142 533 89T495 -14T442
-102T368 -164T265 -187Z" />
<glyph unicode="Z" horiz-adv-x="647" d="M461 -87Q424 -87 381 -73T293 -38T206 1Q172 -24 140 -39T77 -54Q46 -54 25 -41T-7 -9T-19 28Q-19 50 -2 66T60 82Q90 82 125 75T198 56Q246 105 295 175T391 319Q356 318 328 315T259 307L226 302Q228 332 249 348T304
371T378 377Q391 377 402 377T424 375Q462 443 492 503T539 607Q521 611 502 618T460 634Q402 656 351 671T260 687Q228 687 203 675T163 630T148 542Q148 539 148 533T150 521T153 509Q121 515 107 534T93 583Q93 651 145 685T290 720Q343 720 389 711T478 688T561
666T641 656Q651 656 661 657T679 659Q662 644 649 635T625 619Q603 568 570 503T497 369Q529 366 554 363T605 360Q592 342 578 334T539 324T468 321Q419 241 364 168T252 41Q317 21 381 4T495 -13Q518 -13 536 -9T572 5Q554 -46 527 -66T461 -87ZM71 -25Q90 -25
112 -13T160 21Q127 34 98 43T47 52Q25 52 17 45T9 28Q9 12 26 -6T71 -25Z" />
<glyph unicode="[" horiz-adv-x="408" d="M208 -87Q177 -87 143 -84T80 -75T35 -66Q38 -62 40 -56T47 -32T58 20T76 116T105 270T147 497Q162 583 185 627T233 687T279 703Q292 703 311 702T352 700Q379 700 406 704T456 722Q454 683 439 665T400 641T348 636Q322
636 295 642T240 652Q226 611 212 553T185 427T160 291T137 161T117 50T99 -27Q153 -27 188 -26T249 -23T296 -17T341 -6Q338 -47 307 -67T208 -87Z" />
<glyph unicode="\" horiz-adv-x="575" d="M452 -164Q408 -155 378 -112T321 24Q311 59 299 113T273 233T245 369T217 506T191 629T167 721Q192 721 210 705T235 674Q250 635 266 573T300 435T334 281T367 126T399 -12T428 -114T452 -164Z" />
<glyph unicode="]" horiz-adv-x="426" d="M-5 -88Q-2 -58 13 -42T53 -20T105 -13Q131 -13 164 -16T228 -21Q245 27 262 98T295 252T326 414T354 562T377 670H312Q258 670 209 666T112 649Q112 695 146 708T241 721Q282 721 326 716T415 700Q413 684 408 647T394
558T377 448T358 331T339 221T323 133Q319 110 311 76T288 9T250 -47T192 -70Q139 -70 87 -72T-5 -88Z" />
<glyph unicode="^" horiz-adv-x="205" d="M186 406Q172 434 154 454T113 495Q84 484 60 472T11 441Q5 445 3 451T0 461Q0 476 13 491T46 519T85 541T114 549Q126 549 142 538T172 510T196 474T206 439Q206 429 202 421T186 406Z" />
<glyph unicode="_" horiz-adv-x="859" d="M-14 -68Q-9 -33 35 -15T154 11T327 18Q399 18 452 16T549 10T636 3T729 -1Q685 -31 640 -41T564 -51Q475 -51 407 -51T289 -50T205 -49Q170 -50 143 -51T92 -54T43 -60T-14 -68Z" />
<glyph unicode="`" horiz-adv-x="129" d="M113 404Q90 433 64 460T-1 518Q1 537 8 544T24 552Q39 552 57 538T92 502T119 462T130 433Q130 428 126 418T113 404Z" />
<glyph unicode="a" horiz-adv-x="439" d="M51 -47Q19 -47 -3 -26T-26 38Q-26 73 -10 114T34 196T97 270T173 323T253 343Q293 343 320 322T348 266Q348 241 333 231T294 222Q296 231 297 240T299 258Q299 280 289 296T252 313Q224 313 195 294T140 242T92 173T59
99T47 34Q47 -3 72 -3Q95 -3 122 19T178 74T233 144T279 208Q282 214 285 214Q290 213 300 210T318 201T326 186Q326 177 318 162T298 127T278 87T269 50Q269 35 276 22T301 8Q327 8 371 46T460 166L473 153Q451 99 418 58T348 -7T273 -30Q235 -30 217 -7T198 44Q198
49 198 54T200 65Q158 10 123 -18T51 -47Z" />
<glyph unicode="b" horiz-adv-x="399" d="M97 -73Q43 -73 17 -39T-10 55Q-10 105 7 172T52 314T114 459T184 587T250 679T303 714Q321 714 329 693T338 649Q338 621 326 581T292 496T241 406T178 326T109 269Q102 257 91 224T71 147T62 61Q62 21 74 -6T116 -34Q144
-34 174 -10T224 50Q187 69 169 105T150 180Q150 228 175 257T237 287Q267 287 285 263T303 192Q303 160 295 126T270 59Q276 59 281 58T293 57Q329 57 353 75T394 118T422 167L435 151Q408 85 370 60T287 35Q280 35 273 35T259 37Q231 -9 191 -41T97 -73ZM236
74Q247 96 252 120T258 170Q258 205 249 224T226 243Q212 243 201 224T190 175Q190 150 200 121T236 74ZM122 316Q149 338 174 371T222 440T262 512T289 577T300 621Q300 625 299 626T297 629Q289 628 267 600T218 527T165 426T122 316Z" />
<glyph unicode="c" horiz-adv-x="326" d="M109 -56Q60 -56 28 -24T-5 73Q-5 123 14 170T65 255T136 315T215 338Q256 338 272 315T288 265Q288 237 275 214T238 190Q221 190 209 206Q222 214 233 236T244 284Q244 294 240 300T223 306Q197 306 169 283T116 222T77
144T62 67Q62 37 76 12T134 -14Q173 -14 214 8T290 70T347 166L362 154Q339 93 298 46T208 -29T109 -56Z" />
<glyph unicode="d" horiz-adv-x="479" d="M62 -30Q45 -30 27 -21T-4 7T-16 56Q-16 89 0 130T43 211T105 286T180 341T258 362Q280 362 292 355T304 331Q304 327 303 323T298 314Q294 321 284 324T261 328Q229 328 199 309T143 259T99 193T70 125T59 69Q59 48 68
36T94 23Q121 23 159 56T237 150T309 294Q331 352 354 412T402 527T449 625T493 694T530 720Q539 720 546 713T553 695Q553 678 537 640T494 549T439 434T383 308T341 182T324 70Q324 43 327 31T346 19Q367 19 395 36T451 87T500 167L515 155Q495 103 462 62T390
-2T317 -26Q278 -26 263 -1T248 53Q248 70 252 94T264 146Q232 96 197 56T127 -7T62 -30Z" />
<glyph unicode="e" horiz-adv-x="336" d="M111 -44Q49 -44 17 -10T-15 74Q-15 118 7 168T67 262T150 333T241 360Q265 360 285 348T306 297Q306 259 284 226T225 167T145 125T57 103Q55 95 55 88T54 72Q54 60 56 46T67 19T91 -2T132 -10Q175 -10 217 14T295 77T357
165L372 154Q345 94 303 50T212 -19T111 -44ZM64 128Q91 135 124 152T188 192T239 244T259 304Q259 315 255 320T239 325Q216 325 190 308T139 261T94 198T64 128Z" />
<glyph unicode="f" horiz-adv-x="318" d="M-9 -280Q-19 -280 -33 -274T-57 -248T-67 -189Q-67 -146 -53 -76T-12 79T48 253T121 426T203 575T285 681T363 720Q386 720 393 706T400 674Q400 631 377 580T314 478T228 380T131 300Q126 289 122 277T113 253Q124 251
130 241T138 220Q145 176 153 141T177 87T225 67Q260 67 285 92T338 165L356 153Q328 92 289 64T220 36Q203 36 184 44T147 67Q147 5 134 -56T98 -168T48 -249T-9 -280ZM18 -227Q29 -227 42 -208T69 -156T92 -86T109 -9T116 60Q116 90 109 114T84 172Q60 99 41
31T11 -92T0 -181Q0 -227 18 -227ZM151 351Q215 410 261 468T332 571T357 636Q357 648 345 648Q319 648 287 608T220 500T151 351Z" />
<glyph unicode="g" horiz-adv-x="394" d="M42 -280Q19 -280 0 -266T-19 -220Q-19 -189 -1 -164T47 -117T111 -77T178 -43Q191 -11 202 26T225 108Q188 57 148 23T66 -11Q28 -11 8 16T-13 88Q-13 140 12 187T79 270T167 326T256 347Q286 347 299 337T313 313Q313
303 308 298T300 291Q293 300 283 303T258 307Q219 307 183 284T119 226T75 152T58 83Q58 60 67 49T92 37Q120 37 160 74T239 166Q241 178 243 187T249 211Q254 233 266 252T304 271Q309 271 314 270T327 267Q327 251 318 209T291 111T251 -4Q283 11 315 35T373
93T414 165L429 152Q413 107 380 70T309 5T239 -37Q212 -104 181 -159T115 -247T42 -280ZM39 -243Q58 -243 91 -206T164 -77Q125 -96 92 -117T37 -161T16 -211Q16 -226 22 -234T39 -243Z" />
<glyph unicode="h" horiz-adv-x="482" d="M47 -38Q27 -38 17 -6T6 69Q6 116 21 182T63 320T122 462T189 589T253 680T307 714Q326 714 334 692T343 648Q343 621 331 581T296 496T245 407T182 327T112 269Q99 238 91 204T80 139T76 81Q76 72 76 65T77 51Q88 80
102 114T134 181T174 241T222 284T280 301Q310 301 327 287T352 251T360 208Q360 176 350 148T328 93T317 43Q317 23 325 15T346 7Q369 7 397 29T454 87T504 167L518 153Q496 104 466 64T399 0T322 -24Q287 -24 269 -6T250 41Q250 62 258 88T273 140T281 190Q281
216 270 226T243 236Q218 236 198 217T162 166T132 99T104 33T77 -18T47 -38ZM127 316Q155 338 180 371T228 442T267 514T294 579T304 622Q304 626 304 627T302 629Q295 629 274 603T226 532T173 431T127 316Z" />
<glyph unicode="i" horiz-adv-x="242" d="M75 -27Q34 -27 14 -2T-6 58Q-6 81 2 116T25 189T57 262T97 317T140 339Q150 339 157 333T164 315Q164 303 149 276T113 215T77 142T61 70Q61 35 72 24T108 12Q142 12 181 46T263 165L274 153Q243 67 189 20T75 -27ZM194
428Q177 428 164 436T150 463Q150 485 175 501T225 517Q241 517 251 510T262 484Q262 465 241 447T194 428Z" />
<glyph unicode="j" horiz-adv-x="221" d="M-138 -280Q-164 -280 -179 -265T-194 -226Q-194 -189 -158 -146T-67 -71Q-52 -62 -36 -55T-1 -38Q18 7 34 65T62 193Q50 171 39 153T19 122L8 141Q25 173 38 208T65 276T91 328T121 348Q133 348 140 339T147 316Q147
305 142 274T126 199T102 102T70 -3Q99 13 127 31T184 80T241 160L256 151Q229 91 195 56T125 2T58 -37Q36 -98 6 -154T-60 -245T-138 -280ZM-148 -241Q-128 -241 -92 -200T-18 -77Q-91 -113 -127 -151T-163 -220Q-163 -232 -159 -236T-148 -241ZM136 433Q119 433
106 441T93 467Q93 482 105 494T134 514T169 522Q184 522 194 515T205 492Q205 469 184 451T136 433Z" />
<glyph unicode="k" horiz-adv-x="451" d="M304 -38Q275 -38 254 -19T221 30T202 90T196 144Q208 145 229 150T272 167T309 196T324 238Q324 258 311 269T276 281Q246 281 220 261T173 207T134 137T104 65T83 7Q75 -15 65 -23T40 -31Q26 -31 18 -21T7 10T3 57Q3
112 20 181T65 325T128 468T196 593T260 681T309 714Q324 714 333 695T343 646Q343 612 328 570T286 485T220 404T138 339Q106 264 90 192T73 68Q90 109 112 155T163 243T225 311T296 338Q334 338 361 311T389 246Q389 214 373 192T333 156T286 136T246 128Q248
119 253 98T267 56T291 19T325 3Q352 3 378 25T429 85T473 168L484 156Q469 106 440 62T376 -10T304 -38ZM159 389Q198 421 231 464T284 550T304 622Q304 625 304 626T302 629Q292 627 269 594T216 506T159 389Z" />
<glyph unicode="l" horiz-adv-x="239" d="M84 -30Q40 -30 22 0T3 74Q3 122 21 188T68 327T133 469T203 595T268 686T316 720Q328 720 335 707T347 677T352 644Q352 617 339 574T301 477T243 370T169 266T85 180Q79 153 76 128T72 81Q72 43 83 25T116 7Q142 7 168
30T219 90T260 166L278 157Q237 70 188 20T84 -30ZM97 223Q131 259 163 303T223 396T272 488T304 568T316 624Q316 631 315 633T311 636Q303 636 285 612T241 545T189 450T138 339T97 223Z" />
<glyph unicode="m" horiz-adv-x="651" d="M510 -31Q474 -31 457 -9T440 44Q440 68 447 92T462 140T469 182Q469 201 461 208T442 216Q418 216 388 179T312 71Q296 47 284 22T262 -22Q253 -22 241 -20T218 -13T208 0Q208 7 217 33T239 95T262 165T272 226Q272 242
267 252T248 262Q226 262 196 236T133 168T71 75T23 -27Q14 -27 0 -24T-24 -15T-35 -4Q-35 0 -26 29T-4 99T19 184T32 259Q37 268 52 275T81 283Q95 283 103 275T111 254Q111 242 105 215T89 154Q109 185 134 216T186 274T240 316T294 332Q327 332 339 308T351
253Q351 232 347 210T337 167T325 132Q345 167 369 198T423 250T484 270Q518 270 531 250T545 202Q545 176 536 146T518 88T509 40Q509 28 515 18T537 8Q565 8 589 33T635 95T672 166L685 149Q669 108 644 66T586 -3T510 -31Z" />
<glyph unicode="n" horiz-adv-x="468" d="M328 -20Q291 -20 273 -2T254 46Q254 66 261 89T276 136T283 182Q283 208 272 218T245 228Q214 228 182 203T121 139T65 59T19 -15Q2 -15 -13 -9T-38 9Q-38 14 -28 40T-3 103T21 180T32 252Q38 260 51 267T80 274Q110
274 110 247Q110 232 103 200T83 129Q109 168 142 205T211 267T284 292Q325 292 343 264T362 201Q362 170 352 144T332 94T321 46Q321 26 329 19T349 11Q374 11 399 34T448 93T490 166L503 152Q482 103 456 65T398 3T328 -20Z" />
<glyph unicode="o" horiz-adv-x="367" d="M68 -32Q24 -32 7 -5T-11 60Q-11 91 -1 124T26 187T64 233T106 251Q112 251 118 250T130 245Q120 234 108 213T84 165T66 112T59 66Q59 39 68 26T95 12Q115 12 143 34T198 89Q169 114 154 150T139 230Q139 259 150 287T183
333T240 352Q282 352 297 330T312 274Q312 235 293 188T245 98Q261 90 280 90Q296 90 316 96T356 119T388 163L402 152Q381 103 345 83T274 62Q261 62 249 64T226 71Q192 28 150 -2T68 -32ZM219 117Q243 154 260 194T277 270Q277 297 269 309T247 322Q228 322 207
294T186 222Q186 196 194 166T219 117Z" />
<glyph unicode="p" horiz-adv-x="398" d="M-61 -280Q-69 -280 -77 -273T-89 -258T-95 -246Q-77 -189 -62 -146T-34 -60T-10 36T14 166T41 354Q42 364 45 368T61 373Q89 373 101 358T113 325Q113 312 108 280T93 203Q111 235 136 266T193 318T263 339Q308 339 338
307T368 223Q368 184 351 141T301 59T226 -4T129 -28Q101 -28 84 -22T67 -7Q67 -2 74 -2T92 -1Q134 0 171 19T237 69T282 139T298 213Q298 245 285 267T241 289Q216 289 191 273T143 232T103 179T76 131Q58 59 41 -9T8 -134T-21 -227T-47 -274Q-53 -280 -61 -280Z"
/>
<glyph unicode="q" horiz-adv-x="406" d="M201 -280Q187 -280 176 -265T164 -205Q164 -171 170 -121T189 -15T218 91Q178 37 139 3T63 -32Q46 -32 28 -23T-2 5T-15 56Q-15 91 1 131T46 212T110 284T187 337T269 357Q304 357 328 343T352 306Q352 297 348 287T334
272Q328 268 316 270Q316 292 303 307T260 322Q226 322 196 303T142 254T99 189T70 122T60 67Q60 46 69 33T94 20Q114 20 136 39T183 89T232 157T280 230Q288 242 294 248T308 259Q317 264 328 262T343 256Q349 250 349 241Q349 223 333 197T297 130T262 29Q304
33 347 62T427 164L441 151Q407 76 358 43T260 3Q268 -22 272 -50T277 -107Q277 -155 268 -194T241 -256T201 -280ZM226 -222Q234 -222 238 -204T245 -156T248 -99Q248 -80 247 -65T243 -34Q231 -82 226 -124T220 -196Q220 -209 221 -215T226 -222Z" />
<glyph unicode="r" horiz-adv-x="353" d="M177 -26Q142 -26 122 -8T101 41Q101 71 115 103T142 168T156 225Q156 254 139 269T102 297Q80 240 54 188T12 107L1 128Q15 154 37 203T82 315Q72 325 72 340Q72 369 88 389T115 409Q127 409 129 399T132 383Q132 378
127 364T121 346Q122 333 137 322T173 296T209 261T225 208Q225 179 213 148T188 90T175 42Q175 26 183 21T203 15Q227 15 252 29T302 67T346 115T374 163L391 150Q372 108 338 67T263 0T177 -26Z" />
<glyph unicode="s" horiz-adv-x="347" d="M109 -51Q61 -51 33 -31T-8 20T-20 82Q-20 112 -12 128T7 151T29 163T45 172Q73 202 98 237T143 314V325Q143 363 156 379T184 395Q193 395 197 391T203 380Q203 374 200 364T197 338Q197 306 210 268T237 187T251 98Q251
86 250 74T246 52Q279 59 310 84T369 165L379 155Q360 100 323 70T239 31Q223 -11 188 -31T109 -51ZM108 -13Q123 -13 142 -5T171 33Q130 41 97 65T48 114Q28 113 28 82Q28 47 49 17T108 -13ZM177 53Q179 62 180 72T181 95Q181 141 170 187T149 275Q128 240 103
205T55 147Q71 117 102 90T177 53Z" />
<glyph unicode="t" horiz-adv-x="286" d="M87 -46Q44 -46 20 -21T-5 55Q-5 98 11 161T52 292Q43 294 34 295T16 300V322Q27 321 38 320T62 318Q83 372 107 422T155 511T200 574T238 597Q246 597 253 591T261 573Q261 555 240 517T189 427T129 315Q138 315 147
315T164 315Q201 315 237 316T310 321V298Q255 293 211 290T130 286Q126 286 123 286T116 286Q94 235 78 181T62 74Q62 32 75 14T117 -4Q169 -4 219 41T309 166L322 156Q297 99 260 53T179 -19T87 -46Z" />
<glyph unicode="u" horiz-adv-x="439" d="M75 -30Q41 -30 21 1T0 72Q0 101 9 139T32 213T62 274T89 298Q94 298 107 292T129 276Q118 259 102 225T74 152T62 79Q62 72 64 56T73 27T96 14Q115 14 134 33T174 83T214 149T250 217T277 272Q284 271 296 268T319 259T329
243Q329 239 319 217T296 164T273 100T263 42Q263 25 270 15T294 4Q315 4 344 23T405 78T460 165L474 155Q453 101 419 59T346 -6T270 -30Q243 -30 228 -19T207 10T200 50Q200 60 201 70T205 90Q187 59 167 32T123 -13T75 -30Z" />
<glyph unicode="v" horiz-adv-x="408" d="M68 -39Q35 -39 22 -8T9 74Q9 79 10 108T15 201Q16 229 20 239T49 250Q68 250 72 243T77 213Q77 181 73 140T69 62Q69 32 73 19T91 5Q109 5 130 25T174 77T217 147T253 219Q255 287 268 309T301 332Q322 332 330 318T339
292Q339 278 331 265T314 229T305 161Q305 146 308 129T321 99T351 87Q372 87 391 103T430 161L442 152Q420 100 393 82T341 63Q308 63 287 87T256 158Q232 111 201 66T135 -9T68 -39Z" />
<glyph unicode="w" horiz-adv-x="622" d="M285 -39Q253 -39 242 -10T229 59Q230 77 231 99T235 142Q213 100 188 61T135 -4T76 -30Q42 -30 21 0T0 72Q0 101 9 139T33 213T62 274T89 298Q94 298 110 292T129 275Q118 259 102 225T74 151T62 79Q62 71 64 56T73 27T96
14Q119 14 144 42T195 114T244 201Q252 243 257 262T269 286T285 292Q300 292 308 286T317 267Q317 266 316 262T314 254Q308 231 302 197T292 126T288 54Q288 31 292 18T309 5Q324 5 343 23T384 70T425 135T461 205Q461 257 468 284T488 322T513 332Q534 332 543
318T552 292Q552 284 548 277T540 260Q532 245 525 223T517 162Q517 146 520 128T533 99T563 87Q583 87 602 103T642 161L657 150Q635 99 608 81T556 63Q524 63 502 85T469 147Q444 102 414 59T350 -11T285 -39Z" />
<glyph unicode="x" horiz-adv-x="422" d="M48 -59Q42 -59 39 -54T35 -42Q35 -30 56 0T110 72T183 157Q178 204 170 236T139 268Q116 268 97 247T60 193T21 125L9 145Q23 171 35 200T63 254T101 295T156 311Q195 311 214 285T242 219Q288 267 325 299T377 332Q382
332 392 328T404 316Q393 316 369 297T313 247T248 176Q251 152 253 124T260 70T275 30T303 14Q321 14 341 29T381 67T417 117T444 164L456 153Q441 109 412 68T348 1T276 -26Q247 -26 230 -7T203 42T189 106Q148 58 114 15T61 -51Q55 -59 48 -59Z" />
<glyph unicode="y" horiz-adv-x="393" d="M45 -280Q20 -280 0 -266T-20 -223Q-20 -191 -3 -166T42 -120T105 -80T176 -44Q189 -9 203 36T229 130Q197 81 161 45T84 9Q65 9 46 17T15 44T2 91Q2 118 11 155T35 227T64 286T91 309Q96 309 107 306T128 296T139 283Q130
270 119 247T98 194T80 138T73 91Q73 74 80 63T107 52Q127 52 150 70T197 117T240 178Q242 187 244 200T250 226Q254 241 265 258T302 275Q308 275 313 275T326 272Q326 256 317 213T290 112T249 -6Q294 12 339 52T413 164L427 152Q412 104 382 68T313 6T237 -37Q211
-101 180 -156T115 -246T45 -280ZM38 -246Q54 -246 89 -207T163 -74Q125 -94 91 -115T35 -162T14 -217Q14 -226 19 -236T38 -246Z" />
<glyph unicode="z" horiz-adv-x="322" d="M-1 -280Q-33 -280 -51 -268T-70 -227Q-70 -194 -49 -167T9 -115T89 -65T177 -10Q176 25 160 54T103 116Q139 126 164 150T203 205T216 260Q216 282 207 296T176 311Q144 311 118 286T70 220T24 130L10 142Q32 202 56
249T112 325T190 353Q227 353 253 331T279 268Q279 234 263 204T220 149T162 110Q187 91 204 69T231 23Q268 51 297 85T342 163L353 150Q339 105 309 68T238 1Q240 -6 241 -14T242 -32Q242 -76 222 -120T168 -201T90 -258T-1 -280ZM-10 -248Q8 -248 37 -234T95
-193T147 -128T175 -39Q136 -63 98 -85T29 -128T-21 -171T-40 -217Q-40 -233 -31 -240T-10 -248Z" />
<glyph unicode="{" horiz-adv-x="275" d="M115 -87Q75 -87 60 -66T45 -19Q45 7 56 38T82 103T108 170T119 234Q119 262 112 287T78 333Q115 337 133 364T158 433T169 519Q172 557 176 592T189 657T217 703T267 720Q280 720 293 715T314 698T322 662Q310 669 302
672T287 676Q266 676 255 651T237 585T225 500Q220 457 213 419T192 355T155 324Q168 310 174 295T180 255Q180 210 169 171T142 98T116 33T105 -28Q105 -41 112 -49T137 -58Q152 -58 164 -49Q163 -72 148 -79T115 -87Z" />
<glyph unicode="|" horiz-adv-x="271" d="M63 -132Q75 -98 85 -42T103 83T118 229T130 379T142 517T153 629T165 697Q179 692 185 680T194 654T197 630Q197 594 195 536T190 410T183 273T175 147T167 53Q159 -33 135 -82T63 -132Z" />
<glyph unicode="}" horiz-adv-x="271" d="M47 -87Q34 -87 21 -82T-2 -64T-12 -27Q9 -41 25 -41Q45 -41 57 -16T76 49T88 131Q93 175 100 219T122 298T164 348Q150 363 145 381T140 418Q140 450 150 485T175 556T199 620T210 668Q210 676 207 680T195 685Q190 685
181 682T160 670Q160 690 178 706T228 723Q250 723 262 713T275 685Q275 666 264 638T239 576T213 505T202 434Q202 408 209 382T241 338Q204 329 185 298T158 224T146 133Q143 92 139 53T126 -18T99 -68T47 -87Z" />
<glyph unicode="~" horiz-adv-x="449" d="M280 127Q253 127 221 137T157 157T95 167Q84 167 72 166T46 160Q65 183 86 195T130 207Q150 207 173 201T221 186T272 171T323 164Q331 164 340 165T363 169Q340 145 320 136T280 127Z" />
<glyph unicode="&#xa0;" horiz-adv-x="260" />
<glyph unicode="&#xa1;" horiz-adv-x="275" d="M-50 -250Q-59 -250 -66 -243T-73 -225Q-73 -211 -58 -173T-17 -79T39 38T104 162T167 277T222 367Q224 366 225 366T228 364Q222 325 212 290T191 225T173 177Q155 130 133 73T86 -41T38 -145T-8 -221T-50 -250ZM227
408Q214 408 206 413T198 434Q198 449 215 464T252 480Q266 480 276 473T287 450Q287 433 268 421T227 408Z" />
<glyph unicode="&#xa2;" horiz-adv-x="411" d="M70 -162Q84 -147 100 -108T133 -11T168 113Q119 113 87 145T55 242Q55 286 72 328T119 406T184 467T257 503Q267 554 275 598T287 673Q289 688 298 701T338 721L298 509Q340 509 357 486T375 432Q375 405 362 383T326
360Q309 360 296 376Q309 383 318 405T328 448Q328 464 319 471T292 476Q277 397 261 314T231 159Q261 164 292 178T350 217L369 199Q338 170 300 149T223 119Q204 32 185 -31T139 -128T70 -162ZM179 155Q198 231 215 309T248 460Q213 439 185 401T139 318T122
235Q122 208 134 185T179 155Z" />
<glyph unicode="&#xa3;" horiz-adv-x="664" d="M464 -87Q427 -87 383 -72T292 -36T200 5Q175 -22 147 -37T87 -53Q54 -53 31 -38T-5 -2T-17 36Q-17 55 0 68T59 82Q85 82 117 76T183 61Q213 117 242 201T306 398Q259 413 232 442T205 505Q205 524 213 542T237 574T274
587Q266 575 263 557T259 524Q259 488 274 463T314 424Q340 503 370 570T440 679T531 720Q552 720 575 711T616 680T633 616Q633 582 619 542T573 465T493 407T374 385Q349 312 327 251T282 139T232 47Q277 34 324 20T416 -4T497 -13Q519 -13 537 -9T573 5Q556
-45 529 -66T464 -87ZM80 -22Q101 -22 121 -10T157 23Q126 35 97 43T46 51Q28 51 19 46T10 32Q10 23 19 10T44 -12T80 -22ZM124 218Q130 240 156 254T223 276T310 283Q366 283 416 277T505 267Q491 248 469 241T403 232T286 230Q238 230 197 227T124 218ZM381 409Q426
410 461 435T522 498T560 574T574 642Q574 670 563 680T539 690Q508 690 482 651T431 549T381 409Z" />
<glyph unicode="&#xa4;" horiz-adv-x="710" d="M615 23Q598 52 559 86T472 168Q446 137 415 117T346 97Q318 97 297 107T262 136Q216 85 171 65T85 44Q106 64 129 80T180 119T236 183Q231 199 229 215T227 249Q227 290 238 336T272 424Q238 461 207 491T152 542Q145
549 139 566T133 603Q133 612 135 622T140 641Q154 628 198 582T301 473Q327 506 360 527T432 548Q468 548 495 531T538 482Q564 513 582 540T623 585T688 603Q693 603 699 602T711 600Q699 582 657 534T554 417Q554 412 554 407T555 397Q555 355 541 307T502 215Q552
169 585 126T618 46Q618 41 618 36T615 23ZM354 154Q380 154 405 179T451 243T484 327T497 411Q497 448 477 471T433 494Q402 494 376 467T330 399T300 315T289 240Q289 201 310 178T354 154Z" />
<glyph unicode="&#xa5;" horiz-adv-x="829" d="M355 -187Q316 -187 284 -176T232 -144T212 -91Q212 -64 228 -44T278 -13Q274 -27 272 -43T269 -71Q269 -110 291 -133T357 -157Q396 -157 426 -138T479 -89T517 -24Q482 -24 445 -26T364 -35Q376 -5 423 6T534 19Q540
33 544 47T553 76Q507 75 461 74T364 64Q372 86 399 97T469 113T563 118Q574 153 582 206T603 317Q577 269 545 231T475 171T389 149Q328 149 302 183T275 271Q275 309 285 354T309 446T332 534T342 611Q342 642 330 665T286 688Q258 688 238 671T205 628T186 573T179
520Q179 489 189 466Q147 466 130 487T113 538Q113 569 128 601T170 660T232 703T308 720Q347 720 371 705T405 666T416 617Q416 589 407 550T384 465T360 375T350 289Q350 246 366 220T420 194Q455 194 486 216T544 274T593 354T632 440Q649 513 669 576T710 680T754
720Q764 720 781 711T813 686Q790 650 774 615T743 541T716 455T687 345T650 200Q645 179 640 158T628 116Q662 115 691 113T736 109Q707 88 676 82T617 76Q612 61 607 47T597 18Q639 17 674 15T736 9Q707 -11 677 -17T626 -24H579Q558 -70 528 -107T455 -165T355
-187Z" />
<glyph unicode="&#xa6;" horiz-adv-x="272" d="M63 -132Q75 -100 84 -49T101 65T116 198Q123 206 136 213T164 220Q173 220 176 211T179 194Q174 92 164 19T131 -93T63 -132ZM124 291Q131 382 138 464T151 609T165 698Q179 692 186 681T195 657T197 636Q197 597
193 528T188 381Q188 372 182 350T156 314L124 291Z" />
<glyph unicode="&#xa7;" horiz-adv-x="425" d="M149 -87Q114 -87 83 -74T31 -36T11 30Q11 64 25 82T61 109T101 117Q82 97 72 74T62 29Q62 -4 86 -30T161 -57Q190 -57 217 -47T261 -17T278 32Q278 65 258 88T207 130T147 171T97 221T76 290Q76 332 97 365T157
417T254 431Q230 445 207 461T170 498T155 548Q155 574 168 603T206 659T263 702T337 719Q380 719 395 701T411 654Q411 630 403 603T384 552T362 511Q347 514 342 522T337 541Q337 560 346 584T365 632T374 675Q374 687 367 693T340 699Q300 699 269 676T219 621T200
561Q200 533 218 515T264 482T318 447T364 397T383 320Q383 276 364 247T313 204T243 189Q231 189 223 190T206 194Q218 186 237 175T278 148T313 108T327 52Q327 9 300 -22T232 -70T149 -87ZM227 231Q273 231 297 253T322 315Q322 352 301 375T235 399Q196 399
166 379T135 312Q135 300 140 281T165 246T227 231Z" />
<glyph unicode="&#xa8;" horiz-adv-x="236" d="M182 410Q167 410 155 417T143 441Q143 461 165 475T210 489Q224 489 233 483T242 459Q242 442 223 426T182 410ZM38 431Q23 431 11 438T-1 462Q-1 481 21 495T65 509Q80 509 88 503T97 480Q97 463 79 447T38 431Z" />
<glyph unicode="&#xa9;" horiz-adv-x="601" d="M330 100Q287 100 244 116T164 164T105 244T82 358Q82 425 104 474T164 556T246 604T333 620Q376 620 420 604T502 556T561 476T584 362Q584 295 561 246T500 164T418 116T330 100ZM330 133Q394 133 444 161T523
242T552 362Q552 428 525 478T448 558T334 587Q271 587 221 559T143 479T114 359Q114 294 141 243T217 163T330 133ZM335 208Q300 208 275 229T250 299V430Q250 481 273 502T333 523Q365 523 384 510T411 479T419 450Q419 437 413 434T401 431Q391 431 388 435T384
444Q382 454 378 464T365 483T334 491Q310 491 297 477T284 430V299Q284 268 297 254T337 239Q357 239 366 248T380 268T385 286Q386 293 390 296T400 299Q419 299 419 283Q419 252 397 230T335 208Z" />
<glyph unicode="&#xaa;" horiz-adv-x="392" d="M165 447Q143 447 128 462T112 508Q112 538 128 575T173 644T237 698T306 720Q335 720 354 706T373 668Q373 651 361 644T334 637Q336 643 337 649T338 661Q338 675 331 686T305 697Q280 697 256 677T211 626T177
563T164 505Q164 481 181 481Q197 481 216 497T257 537T296 587T326 631Q336 628 347 623T358 611Q358 602 348 586T328 551T318 516Q318 507 323 498T340 488Q358 488 388 515T450 597L458 587Q436 530 397 495T320 459Q295 459 284 473T271 505Q271 510 271 515T272
527Q242 489 217 468T165 447Z" />
<glyph unicode="&#xab;" horiz-adv-x="451" d="M328 44Q309 44 283 56T232 86T187 125T164 160Q198 175 234 200T303 257T357 317Q359 315 361 306T364 292Q364 272 348 252T307 212T252 177T198 147Q220 132 239 120T287 94T361 63Q355 57 347 51T328 44ZM177
44Q158 44 132 56T81 86T36 125T13 160Q47 175 83 200T152 257T206 317Q208 315 210 306T213 292Q213 272 197 252T156 212T101 177T47 147Q69 132 88 120T136 94T210 63Q204 57 196 51T177 44Z" />
<glyph unicode="&#xac;" horiz-adv-x="670" d="M491 31Q497 57 499 79T502 128T503 193Q491 192 478 192T455 192Q388 191 340 191T255 190T187 189T122 186T44 179Q57 202 100 213T209 229T350 234Q391 234 430 234T504 231Q507 244 514 257T536 284Q536 275
538 261T542 229Q567 228 588 228T621 225Q604 214 584 208T545 198Q545 171 544 144T539 93T523 53T491 31Z" />
<glyph unicode="&#xad;" horiz-adv-x="485" d="M38 143Q44 161 62 171T105 187T160 195T217 197Q239 197 265 196T319 194T367 191T401 189Q387 174 361 165T291 153Q264 152 224 153T146 153Q127 153 108 152T72 148T38 143Z" />
<glyph unicode="&#xae;" horiz-adv-x="601" d="M329 100Q286 100 243 116T163 164T104 244T82 358Q82 425 105 474T165 556T247 604T335 620Q378 620 422 604T502 556T561 476T584 362Q584 295 561 246T500 164T417 116T329 100ZM329 133Q393 133 443 162T523
242T552 362Q552 428 525 478T449 558T335 587Q272 587 222 559T143 479T114 358Q114 294 141 243T216 163T329 133ZM275 209Q268 209 262 213T256 225L255 506Q255 512 259 517T272 522H336Q359 522 379 514T413 488T426 436Q426 399 409 379T367 353Q378 332
388 310T408 268T425 233Q426 232 426 230T427 225Q427 219 423 214T410 209Q401 209 394 221T384 239L330 351H292V225Q292 217 287 213T275 209ZM291 381H337Q361 381 375 394T390 436Q390 466 375 478T336 490H291V381Z" />
<glyph unicode="&#xaf;" horiz-adv-x="409" d="M310 419Q288 419 255 424T185 437T116 452T60 461Q70 488 107 488Q144 488 186 481T271 463T349 440Q336 419 310 419Z" />
<glyph unicode="&#xb0;" horiz-adv-x="274" d="M173 396Q133 396 116 412T99 451Q99 475 115 500T159 544T221 562Q263 562 281 546T299 507Q299 483 282 458T237 414T173 396ZM178 418Q199 418 218 433T251 469T265 508Q265 522 255 531T221 540Q200 540 180
526T148 491T135 451Q135 437 145 428T178 418Z" />
<glyph unicode="&#xb1;" horiz-adv-x="461" d="M190 112Q197 148 199 178T201 245Q173 245 151 245T107 243T55 237Q64 261 104 270T201 281V318Q201 336 206 358T229 404Q232 386 235 353T239 281Q270 281 300 280T354 276T390 273Q363 256 336 251T288 245H239Q238
195 229 159T190 112ZM55 30Q61 49 86 59T150 72T231 75Q280 75 324 73T391 68Q373 57 353 51T305 43T230 41Q205 41 184 40T142 39T101 36T55 30Z" />
<glyph unicode="&#xb2;" horiz-adv-x="369" d="M294 303Q280 303 261 308T221 321T177 340Q145 319 120 319Q103 319 91 327T79 350Q79 378 122 378Q133 378 145 377T173 372Q203 398 233 440T282 530T302 621Q302 657 289 672T254 688Q225 688 209 661T192 594Q192
584 194 576T201 555H189Q169 560 159 570T148 603Q148 630 162 654T203 694T262 709Q301 709 325 682T350 616Q350 572 331 526T280 437T212 364Q241 357 265 353T307 348Q315 348 325 352T355 368Q347 335 333 319T294 303ZM118 342Q124 342 130 344T144 352Q136
355 129 356T118 357Q111 357 109 355T106 349Q106 346 110 344T118 342Z" />
<glyph unicode="&#xb3;" horiz-adv-x="308" d="M177 314Q129 314 109 339T88 389Q88 408 100 426T136 445Q139 445 143 445T155 442Q146 434 141 421T135 395Q135 374 147 356T182 337Q209 337 232 366T256 441Q256 470 242 496T191 532Q219 545 238 565T269 609T280
652Q280 677 268 687T241 698Q222 698 206 684T190 647Q190 640 192 632T199 615Q195 608 187 602T172 596Q161 596 155 611T148 639Q148 677 179 697T247 718Q279 718 304 701T330 650Q330 630 321 607T294 566T253 538Q290 524 304 496T319 443Q319 411 301 382T250
333T177 314Z" />
<glyph unicode="&#xb4;" horiz-adv-x="130" d="M107 404Q98 408 94 418T90 432Q90 441 100 460T127 500T160 536T194 551Q203 551 210 545T218 519Q183 487 156 460T107 404Z" />
<glyph unicode="&#xb5;" horiz-adv-x="595" d="M-2 -280Q-12 -280 -19 -271T-31 -252T-36 -239Q-22 -190 -8 -152T21 -74T50 20T79 154T107 354Q108 364 111 368T128 373Q156 373 167 358T179 325Q158 228 145 162T132 60Q132 13 160 13Q179 13 199 32T239 83T279
149T314 217T342 272Q348 271 360 268T383 259T393 244Q393 241 384 219T361 165T337 100T327 41Q327 24 334 14T359 3Q380 3 410 22T471 77T526 164L543 153Q521 99 487 57T413 -8T338 -32Q299 -32 282 -10T264 44Q264 53 265 63T269 83Q242 36 210 2T141 -32Q130
-32 119 -27T99 -15Q62 -144 38 -212T-2 -280Z" />
<glyph unicode="&#xb6;" horiz-adv-x="658" d="M339 -87Q342 -34 347 27T358 155Q334 156 297 161T219 177T144 209T87 260T64 336Q64 392 93 435T168 508T270 557T378 580Q376 651 368 707Q378 713 385 714T400 716Q417 716 425 702T436 666T439 621T440 580Q450
579 462 578T483 573Q481 614 480 649T475 707Q483 713 490 714T504 716Q517 716 524 694T536 636T544 558Q570 551 591 542T629 525Q626 519 617 512T599 500T585 495Q580 495 571 500T545 514Q547 494 547 475T547 436Q547 218 542 99T533 -36Q525 -60 504 -73T459
-87Q460 -84 462 -57T468 16T474 123T479 252T483 395T483 542Q474 544 463 546T442 551Q444 517 445 477T446 398T447 327Q447 251 446 187T442 75T437 -1T432 -36Q427 -50 412 -62T377 -80T339 -87Z" />
<glyph unicode="&#xb7;" horiz-adv-x="220" d="M80 121Q63 121 54 129T45 151Q45 162 54 172T78 189T105 195Q116 195 124 190T133 169Q133 160 126 149T106 130T80 121Z" />
<glyph unicode="&#xb8;" horiz-adv-x="222" d="M81 -218Q51 -218 35 -207T18 -181Q18 -172 24 -163T43 -144Q49 -169 60 -179T85 -189Q103 -189 122 -175T154 -140T167 -104Q167 -96 163 -89T150 -82Q138 -82 121 -91T89 -111T67 -121Q60 -121 56 -114T51 -101Q51
-99 59 -87T81 -57T107 -24T129 0H143L92 -79Q102 -73 117 -66T155 -59Q178 -59 190 -70T203 -104Q203 -131 186 -157T141 -201T81 -218Z" />
<glyph unicode="&#xb9;" horiz-adv-x="276" d="M121 314Q111 314 97 321T73 343Q98 343 114 343T148 346Q159 372 168 411T185 493T199 573T212 633Q190 619 180 615T164 610Q156 610 152 615T147 632Q156 636 174 649T215 680T257 717H263Q265 715 266 712T267
704Q268 698 267 691T264 677Q261 664 256 634T242 566T226 488L213 426Q208 401 203 383T188 352Q212 352 229 346T252 316Q242 317 229 317T206 318Q180 318 161 316T121 314Z" />
<glyph unicode="&#xba;" horiz-adv-x="289" d="M172 452Q145 452 130 469T114 514Q114 541 128 576T166 644T222 698T285 720Q298 720 305 716T316 706Q333 706 340 696T347 677Q347 669 340 655T326 625T319 592Q319 583 324 580T338 577Q345 577 351 578T364
581Q361 569 349 563T323 556Q306 556 298 567Q276 517 243 485T172 452ZM189 485Q204 485 222 499T257 537T285 589Q283 598 282 606T281 628Q281 651 284 665T292 688Q264 686 241 667T200 621T172 566T162 519Q162 504 169 495T189 485Z" />
<glyph unicode="&#xbb;" horiz-adv-x="467" d="M245 44Q235 44 227 50T212 63Q258 81 286 94T333 119T375 147Q349 160 320 176T266 212T225 251T209 292Q209 297 212 306T216 317Q238 288 270 257T338 201T409 160Q404 145 386 125T342 87T290 56T245 44ZM94
44Q84 44 76 50T61 63Q107 81 135 94T182 119T224 147Q198 160 169 176T115 212T74 251T58 292Q58 297 61 306T65 317Q87 288 119 257T187 201T258 160Q253 145 235 125T191 87T139 56T94 44Z" />
<glyph unicode="&#xbc;" horiz-adv-x="657" d="M47 -87Q71 -64 107 -12T186 111T273 260T359 416T432 561T482 674Q486 684 501 694T535 711T571 717Q566 703 546 662T495 562T431 437T361 306T294 186T241 97Q189 15 142 -36T47 -87ZM527 -26Q502 -24 488 -18T474
3Q474 7 478 34T497 133Q491 133 484 133T462 134Q431 134 405 132T359 124Q359 136 362 143T370 154Q401 181 442 218T521 297T582 379Q597 377 597 363Q597 355 585 312T552 167H567Q575 167 585 169T608 173Q595 155 580 144T546 133Q545 124 542 104T535 60T529
13T527 -26ZM423 169Q436 170 458 170T506 169Q512 197 515 214T522 245T530 272L492 235Q479 223 467 212T444 191T423 169ZM119 314Q109 314 95 321T71 343Q96 343 112 343T146 346Q157 372 166 411T183 493T197 573T210 633Q188 619 178 615T162 610Q154 610
150 615T145 632Q154 636 172 649T213 680T255 717H261Q263 715 264 712T265 704Q266 698 265 691T262 677Q258 657 246 595T211 426Q206 401 201 383T186 352Q210 352 227 346T250 316Q240 317 227 317T204 318Q178 318 159 316T119 314Z" />
<glyph unicode="&#xbd;" horiz-adv-x="713" d="M54 -87Q78 -64 114 -12T193 111T280 260T366 416T439 561T489 674Q493 684 507 694T540 712T576 720Q571 705 551 663T501 563T437 438T367 306T301 186T248 97Q196 15 149 -36T54 -87ZM395 12Q401 12 406 15T420
22Q412 25 406 26T395 27Q388 27 386 25T383 20Q383 17 387 15T395 12ZM571 -26Q557 -26 538 -22T498 -9T453 10Q421 -10 396 -10Q379 -10 367 -2T355 21Q355 49 399 49Q410 49 422 47T450 42Q480 69 509 111T559 201T579 292Q579 327 565 342T531 358Q502 358
486 331T469 264Q469 254 470 246T477 225H466Q446 230 436 240T425 273Q425 301 439 325T479 365T539 380Q578 380 602 353T627 286Q627 243 608 196T556 107T488 35Q517 28 542 23T584 18Q592 18 602 22T631 39Q623 5 609 -10T571 -26ZM123 314Q113 314 99 321T75
343Q100 343 116 343T150 346Q161 372 170 411T187 493T201 573T214 633Q192 619 182 615T166 610Q158 610 154 615T149 632Q158 636 176 649T217 680T259 717H265Q267 715 268 712T269 704Q270 698 269 691T266 677Q262 657 250 595T215 426Q210 401 205 383T190
352Q214 352 231 346T254 316Q244 317 231 317T208 318Q182 318 163 316T123 314Z" />
<glyph unicode="&#xbe;" horiz-adv-x="701" d="M92 -87Q126 -49 166 9T248 137T332 283T410 430T478 565T527 674Q532 684 546 694T578 712T614 720Q609 705 590 664T541 565T477 442T408 311T341 191T285 97Q233 15 187 -36T92 -87ZM176 312Q144 312 124 323T96
352T87 387Q87 406 99 425T135 444Q138 444 142 444T154 440Q145 432 140 419T134 392Q134 371 147 354T181 336Q209 336 232 365T256 440Q256 468 242 495T191 531Q218 544 238 564T269 609T281 652Q281 677 269 687T241 698Q222 698 206 685T189 647Q189 640
191 632T198 614Q195 607 187 602T171 596Q160 596 154 611T147 639Q147 665 161 682T199 709T247 718Q279 718 304 701T330 650Q330 629 321 606T293 565T252 537Q289 523 304 495T319 441Q319 410 301 380T250 331T176 312ZM571 -26Q546 -24 532 -18T518 3Q518
7 522 34T542 133Q536 133 529 133T507 134Q476 134 450 132T404 124Q404 136 407 143T414 154Q446 181 486 218T565 297T626 379Q642 377 642 363Q642 355 629 312T597 167H612Q620 167 629 169T653 173Q640 155 624 144T591 133Q590 124 587 104T580 60T574 13T571
-26ZM467 169Q481 170 503 170T551 169Q557 197 560 214T567 245T575 272L536 235Q523 223 512 212T489 191T467 169Z" />
<glyph unicode="&#xbf;" horiz-adv-x="422" d="M93 -280Q29 -280 -9 -248T-47 -155Q-47 -115 -32 -85T9 -29T61 23T112 81T149 154Q159 186 161 210T174 261Q196 251 202 242T209 214Q209 172 190 138T142 72T86 8T38 -61T18 -145Q18 -197 40 -223T97 -250Q132
-250 166 -224T223 -154T246 -56Q246 -41 244 -28T238 0Q280 -5 293 -25T307 -74Q307 -127 280 -174T205 -250T93 -280ZM188 321Q175 321 167 327T159 345Q159 363 176 378T214 393Q228 393 238 386T249 365Q249 346 229 334T188 321Z" />
<glyph unicode="&#xc0;" horiz-adv-x="605" d="M27 -87Q2 -73 -4 -58T-11 -32Q-11 -4 9 43T63 151T139 277Q104 280 78 281T23 282H-5Q7 313 35 325T103 338Q120 338 138 336T175 331Q226 407 278 476T375 601T453 686Q488 721 508 721Q520 721 535 712T566 686Q556
678 541 644T508 559T473 446T442 321T419 200T410 99Q410 60 418 40T446 19Q471 19 504 54T578 167L590 154Q560 74 513 22T413 -30Q370 -30 351 8T332 111Q332 140 336 175T348 252Q304 259 268 263T201 272Q154 185 110 94T27 -87ZM356 292Q370 355 389 420T429
545T471 649Q440 629 401 582T319 468T229 321Q262 315 294 307T356 292ZM551 748Q528 777 502 804T437 862Q439 881 446 888T462 896Q477 896 495 882T530 846T557 806T568 777Q568 772 564 762T551 748Z" />
<glyph unicode="&#xc1;" horiz-adv-x="605" d="M27 -87Q2 -73 -4 -58T-11 -32Q-11 -4 9 43T63 151T139 277Q104 280 78 281T23 282H-5Q7 313 35 325T103 338Q120 338 138 336T175 331Q226 407 278 476T375 601T453 686Q488 721 508 721Q520 721 535 712T566 686Q556
678 541 644T508 559T473 446T442 321T419 200T410 99Q410 60 418 40T446 19Q471 19 504 54T578 167L590 154Q560 74 513 22T413 -30Q370 -30 351 8T332 111Q332 140 336 175T348 252Q304 259 268 263T201 272Q154 185 110 94T27 -87ZM356 292Q370 355 389 420T429
545T471 649Q440 629 401 582T319 468T229 321Q262 315 294 307T356 292ZM555 748Q546 752 542 762T538 776Q538 785 548 804T575 844T608 880T642 895Q651 895 658 889T666 863Q631 831 604 804T555 748Z" />
<glyph unicode="&#xc2;" horiz-adv-x="605" d="M27 -87Q2 -73 -4 -58T-11 -32Q-11 -4 9 43T63 151T139 277Q104 280 78 281T23 282H-5Q7 313 35 325T103 338Q120 338 138 336T175 331Q226 407 278 476T375 601T453 686Q488 721 508 721Q520 721 535 712T566 686Q556
678 541 644T508 559T473 446T442 321T419 200T410 99Q410 60 418 40T446 19Q471 19 504 54T578 167L590 154Q560 74 513 22T413 -30Q370 -30 351 8T332 111Q332 140 336 175T348 252Q304 259 268 263T201 272Q154 185 110 94T27 -87ZM356 292Q370 355 389 420T429
545T471 649Q440 629 401 582T319 468T229 321Q262 315 294 307T356 292ZM646 744Q631 772 613 792T572 833Q543 823 519 810T470 778Q463 782 461 788T459 800Q459 815 472 830T505 858T544 879T573 887Q585 887 601 876T631 848T655 812T665 778Q665 768 661
759T646 744Z" />
<glyph unicode="&#xc3;" horiz-adv-x="605" d="M27 -87Q2 -73 -4 -58T-11 -32Q-11 -4 9 43T63 151T139 277Q104 280 78 281T23 282H-5Q7 313 35 325T103 338Q120 338 138 336T175 331Q226 407 278 476T375 601T453 686Q488 721 508 721Q520 721 535 712T566 686Q556
678 541 644T508 559T473 446T442 321T419 200T410 99Q410 60 418 40T446 19Q471 19 504 54T578 167L590 154Q560 74 513 22T413 -30Q370 -30 351 8T332 111Q332 140 336 175T348 252Q304 259 268 263T201 272Q154 185 110 94T27 -87ZM356 292Q370 355 389 420T429
545T471 649Q440 629 401 582T319 468T229 321Q262 315 294 307T356 292ZM636 759Q609 759 580 770T521 794T462 806Q447 806 433 803T404 791Q421 820 443 832T492 844Q520 844 550 832T611 808T676 796Q697 796 719 805Q701 781 681 770T636 759Z" />
<glyph unicode="&#xc4;" horiz-adv-x="605" d="M27 -87Q2 -73 -4 -58T-11 -32Q-11 -4 9 43T63 151T139 277Q104 280 78 281T23 282H-5Q7 313 35 325T103 338Q120 338 138 336T175 331Q226 407 278 476T375 601T453 686Q488 721 508 721Q520 721 535 712T566 686Q556
678 541 644T508 559T473 446T442 321T419 200T410 99Q410 60 418 40T446 19Q471 19 504 54T578 167L590 154Q560 74 513 22T413 -30Q370 -30 351 8T332 111Q332 140 336 175T348 252Q304 259 268 263T201 272Q154 185 110 94T27 -87ZM356 292Q370 355 389 420T429
545T471 649Q440 629 401 582T319 468T229 321Q262 315 294 307T356 292ZM628 753Q613 753 601 760T589 784Q589 804 611 818T656 832Q670 832 679 826T688 802Q688 785 669 769T628 753ZM484 774Q469 774 457 781T445 805Q445 824 467 838T511 852Q526 852 534
846T543 823Q543 806 525 790T484 774Z" />
<glyph unicode="&#xc5;" horiz-adv-x="605" d="M27 -87Q2 -73 -4 -58T-11 -32Q-11 -4 9 43T63 151T139 277Q104 280 78 281T23 282H-5Q7 313 35 325T103 338Q120 338 138 336T175 331Q226 407 278 476T375 601T453 686Q488 721 508 721Q520 721 535 712T566 686Q556
678 541 644T508 559T473 446T442 321T419 200T410 99Q410 60 418 40T446 19Q471 19 504 54T578 167L590 154Q560 74 513 22T413 -30Q370 -30 351 8T332 111Q332 140 336 175T348 252Q304 259 268 263T201 272Q154 185 110 94T27 -87ZM356 292Q370 355 389 420T429
545T471 649Q440 629 401 582T319 468T229 321Q262 315 294 307T356 292ZM551 754Q511 754 494 770T477 809Q477 833 493 858T537 902T599 920Q641 920 659 904T677 865Q677 841 660 816T614 772T551 754ZM559 779Q578 779 595 792T624 824T636 859Q636 871 626
881T595 892Q575 892 558 880T531 850T520 816Q520 804 529 792T559 779Z" />
<glyph unicode="&#xc6;" horiz-adv-x="761" d="M26 -87Q2 -73 -5 -58T-12 -32Q-12 -4 8 43T63 151T139 277Q103 280 78 281T33 282H-6Q6 313 34 325T103 338Q120 338 138 336T175 331Q227 408 278 478T376 602T456 689T508 721Q549 721 595 719T685 713T766 705T825
698Q819 681 793 673T730 661T650 657Q622 657 596 657T546 659Q530 626 508 561T464 418Q534 416 587 408T675 394Q670 378 644 369T580 357T500 354Q483 354 471 354T448 355Q431 283 421 214T410 96Q410 85 411 75T413 58Q445 53 485 50T564 43T637 36T690 27Q684
11 658 3T595 -9T515 -13Q473 -13 433 -13T363 -9Q346 7 339 39T331 111Q331 142 335 178T347 252Q303 259 268 263T201 272Q154 185 109 94T26 -87ZM355 292Q370 355 389 420T429 545T471 649Q440 629 401 582T318 468T229 321Q262 315 295 307T355 292Z" />
<glyph unicode="&#xc7;" horiz-adv-x="546" d="M229 -87Q157 -87 112 -52T46 40T25 158Q25 237 49 317T115 469T210 597T323 686T441 719Q483 719 510 699T537 631Q537 602 527 566T500 495T461 439T419 417Q410 417 401 422T384 443Q399 460 417 485T453 538T481
593T492 641Q492 661 481 672T444 684Q401 684 355 650T265 559T187 430T132 285T111 144Q111 95 125 51T171 -20T253 -48Q306 -48 359 -18T456 61T527 166L545 154Q511 88 464 34T357 -54T229 -87ZM369 -218Q339 -218 323 -207T306 -181Q306 -172 312 -163T331
-144Q337 -169 348 -179T373 -189Q391 -189 410 -175T442 -140T455 -104Q455 -96 451 -89T438 -82Q426 -82 409 -91T377 -111T355 -121Q348 -121 344 -114T339 -101Q339 -99 347 -87T369 -57T395 -24T417 0H431L380 -79Q390 -73 405 -66T443 -59Q466 -59 478 -70T491
-104Q491 -131 474 -157T429 -201T369 -218Z" />
<glyph unicode="&#xc8;" horiz-adv-x="510" d="M190 -87Q128 -87 83 -62T14 5T-11 97Q-11 142 8 186T63 266T145 326T246 356Q208 388 190 429T172 511Q172 564 198 612T272 689T381 719Q439 719 469 691T500 609Q500 571 487 536T454 479T418 457Q406 457 395
467T377 492Q413 522 437 556T462 629Q462 660 444 676T391 693Q345 693 314 666T266 594T250 497Q250 459 262 417T313 342Q245 331 194 292T115 199T87 94Q87 62 99 29T140 -26T216 -49Q270 -49 322 -19T419 60T490 166L508 154Q472 86 424 32T317 -55T190 -87ZM430
748Q407 777 381 804T316 862Q318 881 325 888T341 896Q356 896 374 882T409 846T436 806T447 777Q447 772 443 762T430 748Z" />
<glyph unicode="&#xc9;" horiz-adv-x="510" d="M190 -87Q128 -87 83 -62T14 5T-11 97Q-11 142 8 186T63 266T145 326T246 356Q208 388 190 429T172 511Q172 564 198 612T272 689T381 719Q439 719 469 691T500 609Q500 571 487 536T454 479T418 457Q406 457 395
467T377 492Q413 522 437 556T462 629Q462 660 444 676T391 693Q345 693 314 666T266 594T250 497Q250 459 262 417T313 342Q245 331 194 292T115 199T87 94Q87 62 99 29T140 -26T216 -49Q270 -49 322 -19T419 60T490 166L508 154Q472 86 424 32T317 -55T190 -87ZM434
748Q425 752 421 762T417 776Q417 785 427 804T454 844T487 880T521 895Q530 895 537 889T545 863Q510 831 483 804T434 748Z" />
<glyph unicode="&#xca;" horiz-adv-x="510" d="M190 -87Q128 -87 83 -62T14 5T-11 97Q-11 142 8 186T63 266T145 326T246 356Q208 388 190 429T172 511Q172 564 198 612T272 689T381 719Q439 719 469 691T500 609Q500 571 487 536T454 479T418 457Q406 457 395
467T377 492Q413 522 437 556T462 629Q462 660 444 676T391 693Q345 693 314 666T266 594T250 497Q250 459 262 417T313 342Q245 331 194 292T115 199T87 94Q87 62 99 29T140 -26T216 -49Q270 -49 322 -19T419 60T490 166L508 154Q472 86 424 32T317 -55T190 -87ZM525
744Q510 772 492 792T451 833Q422 823 398 810T349 778Q342 782 340 788T338 800Q338 815 351 830T384 858T423 879T452 887Q464 887 480 876T510 848T534 812T544 778Q544 768 540 759T525 744Z" />
<glyph unicode="&#xcb;" horiz-adv-x="510" d="M190 -87Q128 -87 83 -62T14 5T-11 97Q-11 142 8 186T63 266T145 326T246 356Q208 388 190 429T172 511Q172 564 198 612T272 689T381 719Q439 719 469 691T500 609Q500 571 487 536T454 479T418 457Q406 457 395
467T377 492Q413 522 437 556T462 629Q462 660 444 676T391 693Q345 693 314 666T266 594T250 497Q250 459 262 417T313 342Q245 331 194 292T115 199T87 94Q87 62 99 29T140 -26T216 -49Q270 -49 322 -19T419 60T490 166L508 154Q472 86 424 32T317 -55T190 -87ZM507
753Q492 753 480 760T468 784Q468 804 490 818T535 832Q549 832 558 826T567 802Q567 785 548 769T507 753ZM363 774Q348 774 336 781T324 805Q324 824 346 838T390 852Q405 852 413 846T422 823Q422 806 404 790T363 774Z" />
<glyph unicode="&#xcc;" horiz-adv-x="474" d="M-31 -88Q-27 -49 -4 -32T55 -9T135 -3Q153 35 170 90T204 210T235 340T264 467T290 577T313 657Q262 656 225 654T154 647T84 636Q93 678 142 698T294 718Q345 718 398 714T496 706T565 697Q538 670 511 664T462
658Q431 658 404 658T354 657Q349 632 341 586T322 483T300 366T277 253T257 163Q242 103 223 59T176 -5Q229 -8 286 -15T396 -23Q364 -55 331 -63T276 -71Q227 -71 187 -71T110 -73T40 -77T-31 -88ZM355 748Q332 777 306 804T241 862Q243 881 250 888T266 896Q281
896 299 882T334 846T361 806T372 777Q372 772 368 762T355 748Z" />
<glyph unicode="&#xcd;" horiz-adv-x="474" d="M-31 -88Q-27 -49 -4 -32T55 -9T135 -3Q153 35 170 90T204 210T235 340T264 467T290 577T313 657Q262 656 225 654T154 647T84 636Q93 678 142 698T294 718Q345 718 398 714T496 706T565 697Q538 670 511 664T462
658Q431 658 404 658T354 657Q349 632 341 586T322 483T300 366T277 253T257 163Q242 103 223 59T176 -5Q229 -8 286 -15T396 -23Q364 -55 331 -63T276 -71Q227 -71 187 -71T110 -73T40 -77T-31 -88ZM358 748Q349 752 345 762T341 776Q341 785 351 804T378 844T411
880T445 895Q454 895 461 889T469 863Q434 831 407 804T358 748Z" />
<glyph unicode="&#xce;" horiz-adv-x="474" d="M-31 -88Q-27 -49 -4 -32T55 -9T135 -3Q153 35 170 90T204 210T235 340T264 467T290 577T313 657Q262 656 225 654T154 647T84 636Q93 678 142 698T294 718Q345 718 398 714T496 706T565 697Q538 670 511 664T462
658Q431 658 404 658T354 657Q349 632 341 586T322 483T300 366T277 253T257 163Q242 103 223 59T176 -5Q229 -8 286 -15T396 -23Q364 -55 331 -63T276 -71Q227 -71 187 -71T110 -73T40 -77T-31 -88ZM450 744Q435 772 417 792T376 833Q347 823 323 810T274 778Q267
782 265 788T263 800Q263 815 276 830T309 858T348 879T377 887Q389 887 405 876T435 848T459 812T469 778Q469 768 465 759T450 744Z" />
<glyph unicode="&#xcf;" horiz-adv-x="474" d="M-31 -88Q-27 -49 -4 -32T55 -9T135 -3Q153 35 170 90T204 210T235 340T264 467T290 577T313 657Q262 656 225 654T154 647T84 636Q93 678 142 698T294 718Q345 718 398 714T496 706T565 697Q538 670 511 664T462
658Q431 658 404 658T354 657Q349 632 341 586T322 483T300 366T277 253T257 163Q242 103 223 59T176 -5Q229 -8 286 -15T396 -23Q364 -55 331 -63T276 -71Q227 -71 187 -71T110 -73T40 -77T-31 -88ZM432 753Q417 753 405 760T393 784Q393 804 415 818T460 832Q474
832 483 826T492 802Q492 785 473 769T432 753ZM288 774Q273 774 261 781T249 805Q249 824 271 838T315 852Q330 852 338 846T347 823Q347 806 329 790T288 774Z" />
<glyph unicode="&#xd0;" horiz-adv-x="665" d="M173 -87Q141 -87 112 -78T61 -40Q75 29 99 115T148 282Q120 282 93 279T31 271Q42 298 77 309T161 323Q184 396 204 454T234 538Q237 546 244 561T261 593T284 621T314 633Q329 633 345 621Q317 557 289 481T235
325Q287 325 334 322T405 316Q376 296 346 290T294 283H222Q193 193 170 106T130 -53Q143 -54 152 -55T172 -56Q236 -56 295 -27T406 52T497 168T557 307T579 453Q579 575 521 631T371 688Q306 688 254 663T173 595T143 498Q143 487 144 477T149 458Q113 458 98
475T82 516Q82 551 107 587T176 653T278 701T402 720Q495 720 551 683T632 583T658 442Q658 356 631 277T556 132T447 16T315 -60T173 -87Z" />
<glyph unicode="&#xd1;" horiz-adv-x="651" d="M49 -87Q62 -38 80 21T124 161T183 354T261 618Q263 622 265 634T268 658Q268 668 265 673T254 678Q231 678 210 660T174 615T150 559T141 506Q141 484 147 467Q111 467 96 484T81 526Q81 560 101 594T152 657T219
703T283 720Q315 720 335 695T368 625T390 524T406 408Q414 348 420 299T432 211T442 141T451 86Q460 133 473 190T501 309T533 429T563 537T590 622T609 670Q615 684 633 702T678 720Q661 675 640 609T596 465T553 307T516 151T490 14T480 -87Q447 -87 426 -69T396
-4Q391 19 384 62T367 161T348 277T329 395T313 500T301 578Q254 408 221 291T164 99T122 -16T86 -71T49 -87ZM571 759Q544 759 515 770T456 794T397 806Q382 806 368 803T339 791Q356 820 378 832T427 844Q455 844 485 832T546 808T611 796Q632 796 654 805Q636
781 616 770T571 759Z" />
<glyph unicode="&#xd2;" horiz-adv-x="634" d="M223 -87Q165 -87 121 -57T51 30T25 162Q25 239 49 318T115 468T211 596T325 686T447 719Q463 719 479 716T509 702Q502 702 499 702T492 702Q440 702 387 669T286 578T200 449T140 300T118 151Q118 98 131 53T175
-20T254 -48Q310 -48 358 -14T446 77T514 206T558 353T573 499Q573 527 569 559T556 615T528 639Q511 639 490 617T450 561T416 491T395 426Q367 432 355 446T342 478Q342 505 360 537T408 600T469 650T528 670Q555 670 572 651T599 600T612 534T616 468Q616 361
592 274T525 119T432 6T326 -63T223 -87ZM523 748Q500 777 474 804T409 862Q411 881 418 888T434 896Q449 896 467 882T502 846T529 806T540 777Q540 772 536 762T523 748Z" />
<glyph unicode="&#xd3;" horiz-adv-x="634" d="M223 -87Q165 -87 121 -57T51 30T25 162Q25 239 49 318T115 468T211 596T325 686T447 719Q463 719 479 716T509 702Q502 702 499 702T492 702Q440 702 387 669T286 578T200 449T140 300T118 151Q118 98 131 53T175
-20T254 -48Q310 -48 358 -14T446 77T514 206T558 353T573 499Q573 527 569 559T556 615T528 639Q511 639 490 617T450 561T416 491T395 426Q367 432 355 446T342 478Q342 505 360 537T408 600T469 650T528 670Q555 670 572 651T599 600T612 534T616 468Q616 361
592 274T525 119T432 6T326 -63T223 -87ZM526 748Q517 752 513 762T509 776Q509 785 519 804T546 844T579 880T613 895Q622 895 629 889T637 863Q602 831 575 804T526 748Z" />
<glyph unicode="&#xd4;" horiz-adv-x="634" d="M223 -87Q165 -87 121 -57T51 30T25 162Q25 239 49 318T115 468T211 596T325 686T447 719Q463 719 479 716T509 702Q502 702 499 702T492 702Q440 702 387 669T286 578T200 449T140 300T118 151Q118 98 131 53T175
-20T254 -48Q310 -48 358 -14T446 77T514 206T558 353T573 499Q573 527 569 559T556 615T528 639Q511 639 490 617T450 561T416 491T395 426Q367 432 355 446T342 478Q342 505 360 537T408 600T469 650T528 670Q555 670 572 651T599 600T612 534T616 468Q616 361
592 274T525 119T432 6T326 -63T223 -87ZM618 744Q603 772 585 792T544 833Q515 823 491 810T442 778Q435 782 433 788T431 800Q431 815 444 830T477 858T516 879T545 887Q557 887 573 876T603 848T627 812T637 778Q637 768 633 759T618 744Z" />
<glyph unicode="&#xd5;" horiz-adv-x="634" d="M223 -87Q165 -87 121 -57T51 30T25 162Q25 239 49 318T115 468T211 596T325 686T447 719Q463 719 479 716T509 702Q502 702 499 702T492 702Q440 702 387 669T286 578T200 449T140 300T118 151Q118 98 131 53T175
-20T254 -48Q310 -48 358 -14T446 77T514 206T558 353T573 499Q573 527 569 559T556 615T528 639Q511 639 490 617T450 561T416 491T395 426Q367 432 355 446T342 478Q342 505 360 537T408 600T469 650T528 670Q555 670 572 651T599 600T612 534T616 468Q616 361
592 274T525 119T432 6T326 -63T223 -87ZM608 759Q581 759 552 770T493 794T434 806Q419 806 405 803T376 791Q393 820 415 832T464 844Q492 844 522 832T583 808T648 796Q669 796 691 805Q673 781 653 770T608 759Z" />
<glyph unicode="&#xd6;" horiz-adv-x="634" d="M223 -87Q165 -87 121 -57T51 30T25 162Q25 239 49 318T115 468T211 596T325 686T447 719Q463 719 479 716T509 702Q502 702 499 702T492 702Q440 702 387 669T286 578T200 449T140 300T118 151Q118 98 131 53T175
-20T254 -48Q310 -48 358 -14T446 77T514 206T558 353T573 499Q573 527 569 559T556 615T528 639Q511 639 490 617T450 561T416 491T395 426Q367 432 355 446T342 478Q342 505 360 537T408 600T469 650T528 670Q555 670 572 651T599 600T612 534T616 468Q616 361
592 274T525 119T432 6T326 -63T223 -87ZM600 753Q585 753 573 760T561 784Q561 804 583 818T628 832Q642 832 651 826T660 802Q660 785 641 769T600 753ZM456 774Q441 774 429 781T417 805Q417 824 439 838T483 852Q498 852 506 846T515 823Q515 806 497 790T456
774Z" />
<glyph unicode="&#xd7;" horiz-adv-x="386" d="M298 20Q279 35 242 67T160 139Q140 119 124 102T92 67T57 23Q51 34 51 44Q51 69 73 101T130 170Q99 202 80 231T61 283Q61 288 62 293T67 305Q92 272 112 250T159 199Q197 236 233 266T287 311Q282 275 265 250T231
209L191 169L243 119Q257 104 274 79T298 20Z" />
<glyph unicode="&#xd8;" horiz-adv-x="633" d="M54 -101Q49 -101 43 -100T31 -98Q45 -88 61 -73T96 -37Q62 -5 43 45T24 163Q24 239 48 318T115 468T211 596T325 686T443 719Q462 719 477 716T504 702H492Q440 702 387 668T286 577T200 448T140 300T118 151Q118
114 124 79T145 17Q185 66 229 127T320 254T410 384T491 506T557 606Q552 621 545 629T528 638Q510 638 490 616T450 560T415 490T394 425Q367 432 355 446T342 477Q342 504 360 537T408 600T469 650T526 670Q543 670 556 662T579 639Q589 652 613 661T659 671Q664
671 668 671T679 669Q671 658 653 631T607 564Q613 540 614 516T616 470Q616 362 591 274T525 119T432 5T326 -64T223 -87Q200 -87 180 -82T140 -69Q117 -85 95 -93T54 -101ZM253 -49Q309 -49 358 -15T446 78T514 209T558 360T573 513Q541 466 503 412T427 302T355
196T293 107T250 46Q234 24 219 5T186 -30Q200 -39 216 -44T253 -49Z" />
<glyph unicode="&#xd9;" horiz-adv-x="721" d="M557 -99Q520 -99 497 -67T473 9Q473 21 474 41T479 87Q443 10 390 -38T264 -87Q199 -87 165 -48T130 54Q130 95 142 147T173 259T210 379T241 496T254 599Q254 687 198 687Q171 687 152 670T119 627T100 571T94
520Q94 506 96 492T103 466Q62 466 45 487T28 538Q28 569 43 601T84 660T146 703T222 720Q279 720 304 686T330 596Q330 559 321 515T298 422T268 325Q245 250 227 185T209 68Q209 22 228 -10T292 -43Q333 -43 367 -17T427 51T471 139T499 225Q513 285 530 352T565
484T602 603T639 688T674 720Q683 720 698 711T728 685Q720 679 703 643T665 551T623 427T584 289T555 155T544 43Q544 -24 563 -46T629 -69Q612 -84 593 -91T557 -99ZM490 748Q467 777 441 804T376 862Q378 881 385 888T401 896Q416 896 434 882T469 846T496 806T507
777Q507 772 503 762T490 748Z" />
<glyph unicode="&#xda;" horiz-adv-x="721" d="M557 -99Q520 -99 497 -67T473 9Q473 21 474 41T479 87Q443 10 390 -38T264 -87Q199 -87 165 -48T130 54Q130 95 142 147T173 259T210 379T241 496T254 599Q254 687 198 687Q171 687 152 670T119 627T100 571T94
520Q94 506 96 492T103 466Q62 466 45 487T28 538Q28 569 43 601T84 660T146 703T222 720Q279 720 304 686T330 596Q330 559 321 515T298 422T268 325Q245 250 227 185T209 68Q209 22 228 -10T292 -43Q333 -43 367 -17T427 51T471 139T499 225Q513 285 530 352T565
484T602 603T639 688T674 720Q683 720 698 711T728 685Q720 679 703 643T665 551T623 427T584 289T555 155T544 43Q544 -24 563 -46T629 -69Q612 -84 593 -91T557 -99ZM493 748Q484 752 480 762T476 776Q476 785 486 804T513 844T546 880T580 895Q589 895 596 889T604
863Q569 831 542 804T493 748Z" />
<glyph unicode="&#xdb;" horiz-adv-x="721" d="M557 -99Q520 -99 497 -67T473 9Q473 21 474 41T479 87Q443 10 390 -38T264 -87Q199 -87 165 -48T130 54Q130 95 142 147T173 259T210 379T241 496T254 599Q254 687 198 687Q171 687 152 670T119 627T100 571T94
520Q94 506 96 492T103 466Q62 466 45 487T28 538Q28 569 43 601T84 660T146 703T222 720Q279 720 304 686T330 596Q330 559 321 515T298 422T268 325Q245 250 227 185T209 68Q209 22 228 -10T292 -43Q333 -43 367 -17T427 51T471 139T499 225Q513 285 530 352T565
484T602 603T639 688T674 720Q683 720 698 711T728 685Q720 679 703 643T665 551T623 427T584 289T555 155T544 43Q544 -24 563 -46T629 -69Q612 -84 593 -91T557 -99ZM585 744Q570 772 552 792T511 833Q482 823 458 810T409 778Q402 782 400 788T398 800Q398 815
411 830T444 858T483 879T512 887Q524 887 540 876T570 848T594 812T604 778Q604 768 600 759T585 744Z" />
<glyph unicode="&#xdc;" horiz-adv-x="721" d="M557 -99Q520 -99 497 -67T473 9Q473 21 474 41T479 87Q443 10 390 -38T264 -87Q199 -87 165 -48T130 54Q130 95 142 147T173 259T210 379T241 496T254 599Q254 687 198 687Q171 687 152 670T119 627T100 571T94
520Q94 506 96 492T103 466Q62 466 45 487T28 538Q28 569 43 601T84 660T146 703T222 720Q279 720 304 686T330 596Q330 559 321 515T298 422T268 325Q245 250 227 185T209 68Q209 22 228 -10T292 -43Q333 -43 367 -17T427 51T471 139T499 225Q513 285 530 352T565
484T602 603T639 688T674 720Q683 720 698 711T728 685Q720 679 703 643T665 551T623 427T584 289T555 155T544 43Q544 -24 563 -46T629 -69Q612 -84 593 -91T557 -99ZM567 753Q552 753 540 760T528 784Q528 804 550 818T595 832Q609 832 618 826T627 802Q627 785
608 769T567 753ZM423 774Q408 774 396 781T384 805Q384 824 406 838T450 852Q465 852 473 846T482 823Q482 806 464 790T423 774Z" />
<glyph unicode="&#xdd;" horiz-adv-x="679" d="M265 -187Q207 -187 166 -163T125 -91Q125 -64 141 -43T191 -12Q186 -31 184 -45T182 -70Q182 -111 204 -135T270 -159Q308 -159 338 -142T390 -96T428 -33T455 37T473 102Q483 145 493 202T516 313Q476 241 424
195T302 149Q240 149 214 183T188 271Q188 309 198 354T221 446T244 535T255 611Q255 643 243 665T199 687Q171 687 151 671T118 628T99 572T92 518Q92 503 94 491T102 466Q60 466 43 487T26 538Q26 569 41 601T83 660T145 703T221 720Q259 720 283 705T318 666T329
616Q329 590 320 552T297 466Q284 419 274 374T263 289Q263 246 279 220T333 194Q368 194 399 215T457 272T506 351T544 440Q557 488 571 537T601 628T632 695T666 720Q677 720 694 711T726 686Q705 653 690 624T662 559T634 477T603 361T561 194Q548 142 533 89T495
-14T442 -102T368 -164T265 -187ZM481 748Q472 752 468 762T464 776Q464 785 474 804T501 844T534 880T568 895Q577 895 584 889T592 863Q557 831 530 804T481 748Z" />
<glyph unicode="&#xde;" horiz-adv-x="520" d="M111 -87Q84 -87 61 -73T37 -35Q37 -24 42 -8T51 21Q93 151 137 284T235 551Q195 544 164 531T114 506T88 495Q83 495 75 500T61 512T54 526Q88 540 139 557T247 579Q255 597 263 620T282 665T306 701T338 716Q344
716 351 714T366 705Q352 678 339 646T311 580Q354 575 395 562T469 524T523 465T544 385Q544 328 516 289T444 224T349 183T254 162T178 155Q159 90 143 28T111 -87ZM185 179Q237 185 288 201T380 245T447 312T472 403Q472 455 448 487T385 536T301 554Q270 469
241 373T185 179Z" />
<glyph unicode="&#xdf;" horiz-adv-x="442" d="M-43 -115Q-31 -99 -21 -56T-2 50T18 186T45 335T81 480T130 603T197 690T285 722Q332 722 363 693T395 609Q395 555 368 512T302 434T224 373Q269 357 302 321T353 240T372 152Q372 111 357 69T316 -7T257 -63T187
-85Q159 -85 142 -66T116 -16T108 47Q108 78 115 106T136 151T171 168Q176 168 181 168T195 166Q184 160 175 138T160 84T154 21Q154 -12 161 -36T185 -61Q203 -61 222 -41T259 12T286 84T297 162Q297 216 276 266T218 346Q209 352 203 359T196 374Q196 383 203
391T221 409Q248 434 274 463T318 528T336 610Q336 629 331 647T314 678T277 690Q240 690 213 659T166 573T131 450T104 307T78 162T49 32T10 -66T-43 -115Z" />
<glyph unicode="&#xe0;" horiz-adv-x="439" d="M51 -47Q19 -47 -3 -26T-26 38Q-26 73 -10 114T34 196T97 270T173 323T253 343Q293 343 320 322T348 266Q348 241 333 231T294 222Q296 231 297 240T299 258Q299 280 289 296T252 313Q224 313 195 294T140 242T92
173T59 99T47 34Q47 -3 72 -3Q95 -3 122 19T178 74T233 144T279 208Q282 214 285 214Q290 213 300 210T318 201T326 186Q326 177 318 162T298 127T278 87T269 50Q269 35 276 22T301 8Q327 8 371 46T460 166L473 153Q451 99 418 58T348 -7T273 -30Q235 -30 217 -7T198
44Q198 49 198 54T200 65Q158 10 123 -18T51 -47ZM327 410Q304 439 278 466T213 524Q215 543 222 550T238 558Q253 558 271 544T306 508T333 468T344 439Q344 434 340 424T327 410Z" />
<glyph unicode="&#xe1;" horiz-adv-x="439" d="M51 -47Q19 -47 -3 -26T-26 38Q-26 73 -10 114T34 196T97 270T173 323T253 343Q293 343 320 322T348 266Q348 241 333 231T294 222Q296 231 297 240T299 258Q299 280 289 296T252 313Q224 313 195 294T140 242T92
173T59 99T47 34Q47 -3 72 -3Q95 -3 122 19T178 74T233 144T279 208Q282 214 285 214Q290 213 300 210T318 201T326 186Q326 177 318 162T298 127T278 87T269 50Q269 35 276 22T301 8Q327 8 371 46T460 166L473 153Q451 99 418 58T348 -7T273 -30Q235 -30 217 -7T198
44Q198 49 198 54T200 65Q158 10 123 -18T51 -47ZM298 410Q289 414 285 424T281 438Q281 447 291 466T318 506T351 542T385 557Q394 557 401 551T409 525Q374 493 347 466T298 410Z" />
<glyph unicode="&#xe2;" horiz-adv-x="439" d="M51 -47Q19 -47 -3 -26T-26 38Q-26 73 -10 114T34 196T97 270T173 323T253 343Q293 343 320 322T348 266Q348 241 333 231T294 222Q296 231 297 240T299 258Q299 280 289 296T252 313Q224 313 195 294T140 242T92
173T59 99T47 34Q47 -3 72 -3Q95 -3 122 19T178 74T233 144T279 208Q282 214 285 214Q290 213 300 210T318 201T326 186Q326 177 318 162T298 127T278 87T269 50Q269 35 276 22T301 8Q327 8 371 46T460 166L473 153Q451 99 418 58T348 -7T273 -30Q235 -30 217 -7T198
44Q198 49 198 54T200 65Q158 10 123 -18T51 -47ZM393 402Q378 430 360 450T319 491Q290 481 266 468T217 436Q210 440 208 446T206 458Q206 473 219 488T252 516T291 537T320 545Q332 545 348 534T378 506T402 470T412 436Q412 426 408 417T393 402Z" />
<glyph unicode="&#xe3;" horiz-adv-x="439" d="M51 -47Q19 -47 -3 -26T-26 38Q-26 73 -10 114T34 196T97 270T173 323T253 343Q293 343 320 322T348 266Q348 241 333 231T294 222Q296 231 297 240T299 258Q299 280 289 296T252 313Q224 313 195 294T140 242T92
173T59 99T47 34Q47 -3 72 -3Q95 -3 122 19T178 74T233 144T279 208Q282 214 285 214Q290 213 300 210T318 201T326 186Q326 177 318 162T298 127T278 87T269 50Q269 35 276 22T301 8Q327 8 371 46T460 166L473 153Q451 99 418 58T348 -7T273 -30Q235 -30 217 -7T198
44Q198 49 198 54T200 65Q158 10 123 -18T51 -47ZM394 400Q367 400 338 411T279 435T220 447Q205 447 191 444T162 432Q179 461 201 473T250 485Q278 485 308 473T369 449T434 437Q455 437 477 446Q459 422 439 411T394 400Z" />
<glyph unicode="&#xe4;" horiz-adv-x="439" d="M51 -47Q19 -47 -3 -26T-26 38Q-26 73 -10 114T34 196T97 270T173 323T253 343Q293 343 320 322T348 266Q348 241 333 231T294 222Q296 231 297 240T299 258Q299 280 289 296T252 313Q224 313 195 294T140 242T92
173T59 99T47 34Q47 -3 72 -3Q95 -3 122 19T178 74T233 144T279 208Q282 214 285 214Q290 213 300 210T318 201T326 186Q326 177 318 162T298 127T278 87T269 50Q269 35 276 22T301 8Q327 8 371 46T460 166L473 153Q451 99 418 58T348 -7T273 -30Q235 -30 217 -7T198
44Q198 49 198 54T200 65Q158 10 123 -18T51 -47ZM368 416Q353 416 341 423T329 447Q329 467 351 481T396 495Q410 495 419 489T428 465Q428 448 409 432T368 416ZM224 437Q209 437 197 444T185 468Q185 487 207 501T251 515Q266 515 274 509T283 486Q283 469 265
453T224 437Z" />
<glyph unicode="&#xe5;" horiz-adv-x="439" d="M51 -47Q19 -47 -3 -26T-26 38Q-26 73 -10 114T34 196T97 270T173 323T253 343Q293 343 320 322T348 266Q348 241 333 231T294 222Q296 231 297 240T299 258Q299 280 289 296T252 313Q224 313 195 294T140 242T92
173T59 99T47 34Q47 -3 72 -3Q95 -3 122 19T178 74T233 144T279 208Q282 214 285 214Q290 213 300 210T318 201T326 186Q326 177 318 162T298 127T278 87T269 50Q269 35 276 22T301 8Q327 8 371 46T460 166L473 153Q451 99 418 58T348 -7T273 -30Q235 -30 217 -7T198
44Q198 49 198 54T200 65Q158 10 123 -18T51 -47ZM306 397Q266 397 249 413T232 452Q232 476 248 501T292 545T354 563Q396 563 414 547T432 508Q432 484 415 459T369 415T306 397ZM314 422Q333 422 350 435T379 467T391 502Q391 514 381 524T350 535Q330 535 313
523T286 493T275 459Q275 447 284 435T314 422Z" />
<glyph unicode="&#xe6;" horiz-adv-x="547" d="M51 -47Q19 -47 -3 -26T-26 38Q-26 73 -10 114T34 196T98 270T174 323T254 343Q281 343 298 333T324 303Q355 329 389 344T455 360Q479 360 499 348T520 297Q520 259 498 226T439 167T359 125T271 103Q269 94 269
86T268 70Q268 41 284 16T346 -10Q389 -10 431 14T509 78T570 165L584 154Q557 94 516 50T425 -19T325 -44Q266 -44 235 -13T200 63Q158 9 123 -19T51 -47ZM73 -1Q100 -1 134 29T201 101Q208 146 234 193T297 277Q293 293 283 302T252 312Q224 312 195 293T140
242T93 173T60 100T48 35Q48 -1 73 -1ZM278 128Q305 138 338 155T402 195T452 246T472 304Q472 314 468 319T453 324Q429 324 403 307T353 261T308 198T278 128Z" />
<glyph unicode="&#xe7;" horiz-adv-x="326" d="M109 -56Q60 -56 28 -24T-5 73Q-5 123 14 170T65 255T136 315T215 338Q256 338 272 315T288 265Q288 237 275 214T238 190Q221 190 209 206Q222 214 233 236T244 284Q244 294 240 300T223 306Q197 306 169 283T116
222T77 144T62 67Q62 37 76 12T134 -14Q173 -14 214 8T290 70T347 166L362 154Q339 93 298 46T208 -29T109 -56ZM189 -218Q159 -218 143 -207T126 -181Q126 -172 132 -163T151 -144Q157 -169 168 -179T193 -189Q211 -189 230 -175T262 -140T275 -104Q275 -96 271
-89T258 -82Q246 -82 229 -91T197 -111T175 -121Q168 -121 164 -114T159 -101Q159 -99 167 -87T189 -57T215 -24T237 0H251L200 -79Q210 -73 225 -66T263 -59Q286 -59 298 -70T311 -104Q311 -131 294 -157T249 -201T189 -218Z" />
<glyph unicode="&#xe8;" horiz-adv-x="336" d="M111 -44Q49 -44 17 -10T-15 74Q-15 118 7 168T67 262T150 333T241 360Q265 360 285 348T306 297Q306 259 284 226T225 167T145 125T57 103Q55 95 55 88T54 72Q54 60 56 46T67 19T91 -2T132 -10Q175 -10 217 14T295
77T357 165L372 154Q345 94 303 50T212 -19T111 -44ZM64 128Q91 135 124 152T188 192T239 244T259 304Q259 315 255 320T239 325Q216 325 190 308T139 261T94 198T64 128ZM301 418Q278 447 252 474T187 532Q189 551 196 558T212 566Q227 566 245 552T280 516T307
476T318 447Q318 442 314 432T301 418Z" />
<glyph unicode="&#xe9;" horiz-adv-x="336" d="M111 -44Q49 -44 17 -10T-15 74Q-15 118 7 168T67 262T150 333T241 360Q265 360 285 348T306 297Q306 259 284 226T225 167T145 125T57 103Q55 95 55 88T54 72Q54 60 56 46T67 19T91 -2T132 -10Q175 -10 217 14T295
77T357 165L372 154Q345 94 303 50T212 -19T111 -44ZM64 128Q91 135 124 152T188 192T239 244T259 304Q259 315 255 320T239 325Q216 325 190 308T139 261T94 198T64 128ZM271 418Q262 422 258 432T254 446Q254 455 264 474T291 514T324 550T358 565Q367 565 374
559T382 533Q347 501 320 474T271 418Z" />
<glyph unicode="&#xea;" horiz-adv-x="336" d="M111 -44Q49 -44 17 -10T-15 74Q-15 118 7 168T67 262T150 333T241 360Q265 360 285 348T306 297Q306 259 284 226T225 167T145 125T57 103Q55 95 55 88T54 72Q54 60 56 46T67 19T91 -2T132 -10Q175 -10 217 14T295
77T357 165L372 154Q345 94 303 50T212 -19T111 -44ZM64 128Q91 135 124 152T188 192T239 244T259 304Q259 315 255 320T239 325Q216 325 190 308T139 261T94 198T64 128ZM366 410Q351 438 333 458T292 499Q263 489 239 476T190 444Q183 448 181 454T179 466Q179
481 192 496T225 524T264 545T293 553Q305 553 321 542T351 514T375 478T385 444Q385 434 381 425T366 410Z" />
<glyph unicode="&#xeb;" horiz-adv-x="336" d="M111 -44Q49 -44 17 -10T-15 74Q-15 118 7 168T67 262T150 333T241 360Q265 360 285 348T306 297Q306 259 284 226T225 167T145 125T57 103Q55 95 55 88T54 72Q54 60 56 46T67 19T91 -2T132 -10Q175 -10 217 14T295
77T357 165L372 154Q345 94 303 50T212 -19T111 -44ZM64 128Q91 135 124 152T188 192T239 244T259 304Q259 315 255 320T239 325Q216 325 190 308T139 261T94 198T64 128ZM342 424Q327 424 315 431T303 455Q303 475 325 489T370 503Q384 503 393 497T402 473Q402
456 383 440T342 424ZM198 445Q183 445 171 452T159 476Q159 495 181 509T225 523Q240 523 248 517T257 494Q257 477 239 461T198 445Z" />
<glyph unicode="&#xec;" horiz-adv-x="242" d="M75 -27Q34 -27 14 -2T-6 58Q-6 81 2 116T25 189T57 262T97 317T140 339Q150 339 157 333T164 315Q164 303 149 276T113 215T77 142T61 70Q61 35 72 24T108 12Q142 12 181 46T263 165L274 153Q243 67 189 20T75 -27ZM203
412Q180 441 154 468T89 526Q91 545 98 552T114 560Q129 560 147 546T182 510T209 470T220 441Q220 436 216 426T203 412Z" />
<glyph unicode="&#xed;" horiz-adv-x="237" d="M75 -27Q34 -27 14 -2T-6 58Q-6 81 2 116T25 189T57 262T97 317T140 339Q150 339 157 333T164 315Q164 303 149 276T113 215T77 142T61 70Q61 35 72 24T108 12Q142 12 181 46T263 165L274 153Q243 67 189 20T75 -27ZM183
411Q174 415 170 425T166 439Q166 448 176 467T203 507T236 543T270 558Q279 558 286 552T294 526Q259 494 232 467T183 411Z" />
<glyph unicode="&#xee;" horiz-adv-x="250" d="M75 -27Q34 -27 14 -2T-6 58Q-6 81 2 116T25 189T57 262T97 317T140 339Q150 339 157 333T164 315Q164 303 149 276T113 215T77 142T61 70Q61 35 72 24T108 12Q142 12 181 46T263 165L274 153Q243 67 189 20T75 -27ZM286
403Q271 431 253 451T212 492Q183 482 159 469T110 437Q103 441 101 447T99 459Q99 474 112 489T145 517T184 538T213 546Q225 546 241 535T271 507T295 471T305 437Q305 427 301 418T286 403Z" />
<glyph unicode="&#xef;" horiz-adv-x="237" d="M75 -27Q34 -27 14 -2T-6 58Q-6 81 2 116T25 189T57 262T97 317T140 339Q150 339 157 333T164 315Q164 303 149 276T113 215T77 142T61 70Q61 35 72 24T108 12Q142 12 181 46T263 165L274 153Q243 67 189 20T75 -27ZM243
416Q228 416 216 423T204 447Q204 467 226 481T271 495Q285 495 294 489T303 465Q303 448 284 432T243 416ZM99 437Q84 437 72 444T60 468Q60 487 82 501T126 515Q141 515 149 509T158 486Q158 469 140 453T99 437Z" />
<glyph unicode="&#xf0;" horiz-adv-x="478" d="M59 -30Q33 -30 8 -10T-17 55Q-17 89 -1 130T42 211T104 286T177 341T254 362Q278 362 290 353T303 328Q303 323 302 319T299 310Q287 328 258 328Q226 328 196 309T141 258T97 192T68 123T57 67Q57 46 66 34T92
21Q113 21 142 42T201 101T260 188T310 292Q327 334 341 384T355 485Q355 496 354 506T351 528Q336 526 314 522T269 513T233 504Q233 527 248 539T289 557T342 567Q332 601 310 634T252 697Q269 719 295 719Q327 719 351 698T392 644T418 575Q442 577 471 580T514
589Q503 569 491 559T464 546T426 539Q428 526 429 516T430 493Q430 443 413 385T375 268T336 155T319 60Q319 41 324 30T346 19Q367 19 395 37T451 88T500 167L514 157Q494 105 461 64T390 -2T316 -26Q278 -26 263 -1T248 53Q248 71 252 96T263 149Q232 99 196
58T125 -6T59 -30Z" />
<glyph unicode="&#xf1;" horiz-adv-x="468" d="M328 -20Q291 -20 273 -2T254 46Q254 66 261 89T276 136T283 182Q283 208 272 218T245 228Q214 228 182 203T121 139T65 59T19 -15Q2 -15 -13 -9T-38 9Q-38 14 -28 40T-3 103T21 180T32 252Q38 260 51 267T80 274Q110
274 110 247Q110 232 103 200T83 129Q109 168 142 205T211 267T284 292Q325 292 343 264T362 201Q362 170 352 144T332 94T321 46Q321 26 329 19T349 11Q374 11 399 34T448 93T490 166L503 152Q482 103 456 65T398 3T328 -20ZM359 354Q332 354 303 365T244 389T185
401Q170 401 156 398T127 386Q144 415 166 427T215 439Q243 439 273 427T334 403T399 391Q420 391 442 400Q424 376 404 365T359 354Z" />
<glyph unicode="&#xf2;" horiz-adv-x="367" d="M68 -32Q24 -32 7 -5T-11 60Q-11 91 -1 124T26 187T64 233T106 251Q112 251 118 250T130 245Q120 234 108 213T84 165T66 112T59 66Q59 39 68 26T95 12Q115 12 143 34T198 89Q169 114 154 150T139 230Q139 259 150
287T183 333T240 352Q282 352 297 330T312 274Q312 235 293 188T245 98Q261 90 280 90Q296 90 316 96T356 119T388 163L402 152Q381 103 345 83T274 62Q261 62 249 64T226 71Q192 28 150 -2T68 -32ZM219 117Q243 154 260 194T277 270Q277 297 269 309T247 322Q228
322 207 294T186 222Q186 196 194 166T219 117ZM304 424Q281 453 255 480T190 538Q192 557 199 564T215 572Q230 572 248 558T283 522T310 482T321 453Q321 448 317 438T304 424Z" />
<glyph unicode="&#xf3;" horiz-adv-x="367" d="M68 -32Q24 -32 7 -5T-11 60Q-11 91 -1 124T26 187T64 233T106 251Q112 251 118 250T130 245Q120 234 108 213T84 165T66 112T59 66Q59 39 68 26T95 12Q115 12 143 34T198 89Q169 114 154 150T139 230Q139 259 150
287T183 333T240 352Q282 352 297 330T312 274Q312 235 293 188T245 98Q261 90 280 90Q296 90 316 96T356 119T388 163L402 152Q381 103 345 83T274 62Q261 62 249 64T226 71Q192 28 150 -2T68 -32ZM219 117Q243 154 260 194T277 270Q277 297 269 309T247 322Q228
322 207 294T186 222Q186 196 194 166T219 117ZM275 424Q266 428 262 438T258 452Q258 461 268 480T295 520T328 556T362 571Q371 571 378 565T386 539Q351 507 324 480T275 424Z" />
<glyph unicode="&#xf4;" horiz-adv-x="367" d="M68 -32Q24 -32 7 -5T-11 60Q-11 91 -1 124T26 187T64 233T106 251Q112 251 118 250T130 245Q120 234 108 213T84 165T66 112T59 66Q59 39 68 26T95 12Q115 12 143 34T198 89Q169 114 154 150T139 230Q139 259 150
287T183 333T240 352Q282 352 297 330T312 274Q312 235 293 188T245 98Q261 90 280 90Q296 90 316 96T356 119T388 163L402 152Q381 103 345 83T274 62Q261 62 249 64T226 71Q192 28 150 -2T68 -32ZM219 117Q243 154 260 194T277 270Q277 297 269 309T247 322Q228
322 207 294T186 222Q186 196 194 166T219 117ZM370 416Q355 444 337 464T296 505Q267 495 243 482T194 450Q187 454 185 460T183 472Q183 487 196 502T229 530T268 551T297 559Q309 559 325 548T355 520T379 484T389 450Q389 440 385 431T370 416Z" />
<glyph unicode="&#xf5;" horiz-adv-x="367" d="M68 -32Q24 -32 7 -5T-11 60Q-11 91 -1 124T26 187T64 233T106 251Q112 251 118 250T130 245Q120 234 108 213T84 165T66 112T59 66Q59 39 68 26T95 12Q115 12 143 34T198 89Q169 114 154 150T139 230Q139 259 150
287T183 333T240 352Q282 352 297 330T312 274Q312 235 293 188T245 98Q261 90 280 90Q296 90 316 96T356 119T388 163L402 152Q381 103 345 83T274 62Q261 62 249 64T226 71Q192 28 150 -2T68 -32ZM219 117Q243 154 260 194T277 270Q277 297 269 309T247 322Q228
322 207 294T186 222Q186 196 194 166T219 117ZM371 414Q344 414 315 425T256 449T197 461Q182 461 168 458T139 446Q156 475 178 487T227 499Q255 499 285 487T346 463T411 451Q432 451 454 460Q436 436 416 425T371 414Z" />
<glyph unicode="&#xf6;" horiz-adv-x="363" d="M68 -32Q24 -32 7 -5T-11 60Q-11 91 -1 124T26 187T64 233T106 251Q112 251 118 250T130 245Q120 234 108 213T84 165T66 112T59 66Q59 39 68 26T95 12Q115 12 143 34T198 89Q169 114 154 150T139 230Q139 259 150
287T183 333T240 352Q282 352 297 330T312 274Q312 235 293 188T245 98Q261 90 280 90Q296 90 316 96T356 119T388 163L402 152Q381 103 345 83T274 62Q261 62 249 64T226 71Q192 28 150 -2T68 -32ZM219 117Q243 154 260 194T277 270Q277 297 269 309T247 322Q228
322 207 294T186 222Q186 196 194 166T219 117ZM345 413Q330 413 318 420T306 444Q306 464 328 478T373 492Q387 492 396 486T405 462Q405 445 386 429T345 413ZM201 434Q186 434 174 441T162 465Q162 484 184 498T228 512Q243 512 251 506T260 483Q260 466 242
450T201 434Z" />
<glyph unicode="&#xf7;" horiz-adv-x="470" d="M25 121Q33 145 61 156T130 171T221 175Q257 175 291 174T354 170T397 166Q380 154 359 147T303 136T213 133Q170 133 125 131T25 121ZM176 -12Q162 -12 152 -5T141 17Q141 35 161 47T201 60Q214 60 222 55T230 34Q230
19 213 4T176 -12ZM235 238Q221 238 211 245T200 267Q200 285 220 297T260 310Q273 310 281 305T289 284Q289 268 273 253T235 238Z" />
<glyph unicode="&#xf8;" horiz-adv-x="366" d="M68 -32Q48 -32 35 -25Q14 -42 -5 -51T-43 -60Q-47 -60 -51 -60T-58 -58Q-45 -51 -29 -37T6 -3Q-3 10 -7 26T-11 60Q-11 91 -1 124T26 187T64 233T106 251Q112 251 118 250T130 245Q120 237 108 216T85 167T66 110T59
57Q85 88 109 119T147 170Q143 184 141 199T139 231Q139 264 151 291T186 335T240 352Q258 352 271 347Q275 353 279 359T288 373Q292 379 305 383T333 388Q336 388 340 388T349 386Q348 384 335 365T303 318Q312 301 312 274Q312 235 293 188T245 98Q263 88 283
88Q308 88 339 105T388 163L402 152Q381 103 345 83T274 62Q261 62 249 64T226 71Q192 28 150 -2T68 -32ZM198 89Q189 97 182 106T167 125Q146 96 124 68T80 16Q86 12 95 12Q115 12 143 34T198 89ZM219 117Q245 156 262 200T275 279Q254 248 233 217T195 163Q199
150 205 138T219 117ZM253 321Q251 321 250 321T247 322Q234 322 220 309T196 273T186 223Q202 246 218 270T253 321Z" />
<glyph unicode="&#xf9;" horiz-adv-x="439" d="M75 -30Q41 -30 21 1T0 72Q0 101 9 139T32 213T62 274T89 298Q94 298 107 292T129 276Q118 259 102 225T74 152T62 79Q62 72 64 56T73 27T96 14Q115 14 134 33T174 83T214 149T250 217T277 272Q284 271 296 268T319
259T329 243Q329 239 319 217T296 164T273 100T263 42Q263 25 270 15T294 4Q315 4 344 23T405 78T460 165L474 155Q453 101 419 59T346 -6T270 -30Q243 -30 228 -19T207 10T200 50Q200 60 201 70T205 90Q187 59 167 32T123 -13T75 -30ZM260 370Q237 399 211 426T146
484Q148 503 155 510T171 518Q186 518 204 504T239 468T266 428T277 399Q277 394 273 384T260 370Z" />
<glyph unicode="&#xfa;" horiz-adv-x="439" d="M75 -30Q41 -30 21 1T0 72Q0 101 9 139T32 213T62 274T89 298Q94 298 107 292T129 276Q118 259 102 225T74 152T62 79Q62 72 64 56T73 27T96 14Q115 14 134 33T174 83T214 149T250 217T277 272Q284 271 296 268T319
259T329 243Q329 239 319 217T296 164T273 100T263 42Q263 25 270 15T294 4Q315 4 344 23T405 78T460 165L474 155Q453 101 419 59T346 -6T270 -30Q243 -30 228 -19T207 10T200 50Q200 60 201 70T205 90Q187 59 167 32T123 -13T75 -30ZM231 370Q222 374 218 384T214
398Q214 407 224 426T251 466T284 502T318 517Q327 517 334 511T342 485Q307 453 280 426T231 370Z" />
<glyph unicode="&#xfb;" horiz-adv-x="439" d="M75 -30Q41 -30 21 1T0 72Q0 101 9 139T32 213T62 274T89 298Q94 298 107 292T129 276Q118 259 102 225T74 152T62 79Q62 72 64 56T73 27T96 14Q115 14 134 33T174 83T214 149T250 217T277 272Q284 271 296 268T319
259T329 243Q329 239 319 217T296 164T273 100T263 42Q263 25 270 15T294 4Q315 4 344 23T405 78T460 165L474 155Q453 101 419 59T346 -6T270 -30Q243 -30 228 -19T207 10T200 50Q200 60 201 70T205 90Q187 59 167 32T123 -13T75 -30ZM326 362Q311 390 293 410T252
451Q223 441 199 428T150 396Q143 400 141 406T139 418Q139 433 152 448T185 476T224 497T253 505Q265 505 281 494T311 466T335 430T345 396Q345 386 341 377T326 362Z" />
<glyph unicode="&#xfc;" horiz-adv-x="439" d="M75 -30Q41 -30 21 1T0 72Q0 101 9 139T32 213T62 274T89 298Q94 298 107 292T129 276Q118 259 102 225T74 152T62 79Q62 72 64 56T73 27T96 14Q115 14 134 33T174 83T214 149T250 217T277 272Q284 271 296 268T319
259T329 243Q329 239 319 217T296 164T273 100T263 42Q263 25 270 15T294 4Q315 4 344 23T405 78T460 165L474 155Q453 101 419 59T346 -6T270 -30Q243 -30 228 -19T207 10T200 50Q200 60 201 70T205 90Q187 59 167 32T123 -13T75 -30ZM301 376Q286 376 274 383T262
407Q262 427 284 441T329 455Q343 455 352 449T361 425Q361 408 342 392T301 376ZM157 397Q142 397 130 404T118 428Q118 447 140 461T184 475Q199 475 207 469T216 446Q216 429 198 413T157 397Z" />
<glyph unicode="&#xfd;" horiz-adv-x="393" d="M45 -280Q20 -280 0 -266T-20 -223Q-20 -191 -3 -166T42 -120T105 -80T176 -44Q189 -9 203 36T229 130Q197 81 161 45T84 9Q65 9 46 17T15 44T2 91Q2 118 11 155T35 227T64 286T91 309Q96 309 107 306T128 296T139
283Q130 270 119 247T98 194T80 138T73 91Q73 74 80 63T107 52Q127 52 150 70T197 117T240 178Q242 187 244 200T250 226Q254 241 265 258T302 275Q308 275 313 275T326 272Q326 256 317 213T290 112T249 -6Q294 12 339 52T413 164L427 152Q412 104 382 68T313
6T237 -37Q211 -101 180 -156T115 -246T45 -280ZM38 -246Q54 -246 89 -207T163 -74Q125 -94 91 -115T35 -162T14 -217Q14 -226 19 -236T38 -246ZM229 381Q220 385 216 395T212 409Q212 418 222 437T249 477T282 513T316 528Q325 528 332 522T340 496Q305 464 278
437T229 381Z" />
<glyph unicode="&#xfe;" horiz-adv-x="399" d="M-60 -280Q-68 -280 -76 -271T-88 -252T-93 -239Q-73 -172 -53 -101T-12 56T27 251T62 504Q63 515 66 519T84 523Q111 523 122 510T134 473Q134 464 131 441T124 387T114 321T103 256T93 203Q111 235 136 266T193
319T263 340Q308 340 338 308T368 224Q368 185 351 142T301 60T226 -3T129 -28Q101 -28 84 -21T67 -7Q67 -2 75 -1T95 0Q135 0 171 19T236 69T281 139T298 214Q298 245 285 267T242 289Q216 289 191 273T143 232T103 179T77 131Q59 54 41 -15T7 -139T-23 -229T-48
-274Q-53 -280 -60 -280Z" />
<glyph unicode="&#xff;" horiz-adv-x="393" d="M45 -280Q20 -280 0 -266T-20 -223Q-20 -191 -3 -166T42 -120T105 -80T176 -44Q189 -9 203 36T229 130Q197 81 161 45T84 9Q65 9 46 17T15 44T2 91Q2 118 11 155T35 227T64 286T91 309Q96 309 107 306T128 296T139
283Q130 270 119 247T98 194T80 138T73 91Q73 74 80 63T107 52Q127 52 150 70T197 117T240 178Q242 187 244 200T250 226Q254 241 265 258T302 275Q308 275 313 275T326 272Q326 256 317 213T290 112T249 -6Q294 12 339 52T413 164L427 152Q412 104 382 68T313
6T237 -37Q211 -101 180 -156T115 -246T45 -280ZM38 -246Q54 -246 89 -207T163 -74Q125 -94 91 -115T35 -162T14 -217Q14 -226 19 -236T38 -246ZM299 387Q284 387 272 394T260 418Q260 438 282 452T327 466Q341 466 350 460T359 436Q359 419 340 403T299 387ZM155
408Q140 408 128 415T116 439Q116 458 138 472T182 486Q197 486 205 480T214 457Q214 440 196 424T155 408Z" />
<glyph unicode="&#x2013;" horiz-adv-x="703" d="M33 111Q37 147 70 165T163 190T307 197Q369 197 411 195T486 189T552 182T629 179Q589 149 550 139T484 129Q428 129 387 129T314 129T259 130T212 130Q176 129 148 127T92 122T33 111Z" />
<glyph unicode="&#x2014;" horiz-adv-x="864" d="M44 111Q49 147 93 165T212 190T385 197Q457 197 510 195T608 189T694 182T788 179Q743 149 699 139T622 128Q540 128 475 128T361 130T278 130Q239 130 210 129T156 126T105 120T44 111Z" />
<glyph unicode="&#x2018;" horiz-adv-x="157" d="M204 575Q192 594 175 615T146 657T133 691Q133 703 142 712T162 721Q168 703 183 682T213 641T228 607Q228 597 221 589T204 575Z" />
<glyph unicode="&#x2019;" horiz-adv-x="138" d="M154 574Q146 580 138 588T130 607Q130 621 144 640T174 681T196 721Q207 721 216 712T225 690Q225 677 213 657T184 615T154 574Z" />
<glyph unicode="&#x201a;" horiz-adv-x="203" d="M15 -88Q5 -82 0 -72T-5 -49Q-5 -29 4 -4T27 39T57 57Q68 57 76 48T84 27Q57 -1 44 -28T15 -88Z" />
<glyph unicode="&#x201c;" horiz-adv-x="271" d="M318 575Q306 594 290 615T261 657T248 691Q248 703 257 712T277 721Q282 703 297 682T327 641T342 607Q342 597 335 589T318 575ZM204 575Q192 594 175 615T146 657T133 691Q133 703 142 712T162 721Q168 703
183 682T213 641T228 607Q228 597 221 589T204 575Z" />
<glyph unicode="&#x201d;" horiz-adv-x="253" d="M269 575Q261 581 253 589T245 607Q245 621 259 640T289 681T311 721Q322 721 331 712T340 691Q340 678 328 658T299 616T269 575ZM155 575Q146 581 139 589T131 607Q131 621 145 640T175 681T196 721Q207 721
216 712T225 691Q225 678 213 658T184 616T155 575Z" />
<glyph unicode="&#x201e;" horiz-adv-x="313" d="M125 -88Q115 -82 110 -72T105 -49Q105 -29 114 -4T137 39T167 57Q178 57 186 48T194 27Q167 -1 154 -28T125 -88ZM15 -88Q5 -82 0 -72T-5 -49Q-5 -29 4 -4T27 39T57 57Q68 57 76 48T84 27Q57 -1 44 -28T15 -88Z" />
<glyph unicode="&#x2022;" horiz-adv-x="252" d="M93 116Q75 116 61 126T47 157Q47 172 57 188T82 215T116 226Q136 226 152 213T168 179Q168 165 157 151T129 126T93 116Z" />
<glyph unicode="&#x2039;" horiz-adv-x="298" d="M175 43Q157 43 131 55T80 85T36 123T12 158Q47 173 83 199T152 257T204 318Q208 313 210 305T212 292Q212 272 196 252T155 212T101 177T47 147Q68 132 87 119T135 93T209 62Q204 56 195 50T175 43Z" />
<glyph unicode="&#x203a;" horiz-adv-x="315" d="M95 43Q84 43 76 49T61 62Q108 80 135 93T182 119T223 147Q198 160 170 176T116 212T74 251T58 291Q58 296 60 304T66 318Q86 289 118 258T187 200T258 158Q253 143 235 123T191 85T139 55T95 43Z" />
</font>
</defs>
</svg>
